<?xml version="1.0" standalone="no"?>
<!DOCTYPE svg PUBLIC "-//W3C//DTD SVG 20010904//EN"
 "http://www.w3.org/TR/2001/REC-SVG-20010904/DTD/svg10.dtd">
<svg version="1.0" xmlns="http://www.w3.org/2000/svg"
 width="1272.000000pt" height="1272.000000pt" viewBox="0 0 1272.000000 1272.000000"
 preserveAspectRatio="xMidYMid meet">
<metadata>
Created by potrace 1.14, written by Peter Selinger 2001-2017
</metadata>
<g transform="translate(0.000000,1272.000000) scale(0.100000,-0.100000)"
fill="#000000" stroke="none">
<path d="M6259 12257 c-75 -48 -1905 -1226 -2571 -1656 -142 -91 -391 -251
-553 -356 -350 -225 -771 -496 -1187 -765 l-301 -194 6 -930 c4 -511 7 -1832
7 -2935 l0 -2006 95 -60 c53 -33 141 -90 198 -126 56 -36 172 -110 257 -164
143 -91 273 -174 360 -230 19 -12 68 -43 108 -69 39 -25 105 -67 145 -92 149
-96 176 -113 357 -228 102 -64 448 -285 770 -491 322 -206 610 -389 640 -408
127 -79 555 -353 653 -418 32 -22 60 -39 62 -39 3 0 58 -34 122 -76 65 -43
143 -93 173 -112 30 -19 81 -52 113 -73 32 -22 62 -39 67 -39 6 0 10 -4 10
-10 0 -5 5 -10 10 -10 12 0 94 -52 98 -62 2 -5 10 -8 17 -8 7 0 15 -4 17 -8 2
-4 25 -21 52 -37 27 -17 65 -40 85 -53 20 -12 46 -28 59 -34 12 -6 22 -15 22
-20 0 -4 5 -8 12 -8 6 0 26 -11 44 -25 18 -14 37 -25 43 -25 6 0 11 -4 11 -10
0 -5 5 -10 10 -10 6 0 28 -12 50 -26 l39 -26 38 23 c21 12 67 42 103 65 60 38
450 285 700 443 58 36 110 69 115 74 6 4 102 66 215 137 229 144 472 297 555
350 30 19 87 56 127 81 40 25 139 88 221 140 81 52 157 100 170 107 12 7 48
30 79 50 32 20 157 100 278 177 121 77 246 157 277 177 32 21 65 41 73 45 8 4
53 32 100 63 47 31 92 59 100 63 8 4 48 28 88 54 39 27 168 108 285 182 116
74 246 156 287 182 41 27 242 154 445 282 204 129 387 246 408 261 l37 26 0
2772 c0 1525 1 2825 1 2888 1 63 0 142 0 175 l-1 60 -295 190 c-162 105 -428
276 -590 380 -162 105 -428 276 -590 380 -162 105 -418 269 -568 366 -355 229
-2378 1532 -2526 1626 -62 40 -121 73 -131 73 -9 0 -55 -24 -101 -53z"/>
</g>
</svg>
