<?xml version="1.0" encoding="UTF-8" standalone="no"?>
<!-- Created with Inkscape (http://www.inkscape.org/) -->

<svg
   width="123mm"
   height="123mm"
   viewBox="0 0 123 123"
   version="1.1"
   id="svg1"
   xml:space="preserve"
   xmlns:xlink="http://www.w3.org/1999/xlink"
   xmlns="http://www.w3.org/2000/svg"
   xmlns:svg="http://www.w3.org/2000/svg"><defs
     id="defs1" /><g
     id="layer1"
     style="display:inline"
     transform="translate(2,2)"><path
       style="display:inline;fill:#1f1651;fill-opacity:1;stroke:#ea34b5;stroke-width:1.7;stroke-linejoin:round;stroke-dasharray:none;stroke-opacity:1"
       d="M 8,30 60,60 112,30 60,0 Z"
       id="path1" /><use
       x="0"
       y="0"
       xlink:href="#path1"
       id="use37"
       transform="rotate(120,60.000011,60.022196)" /><use
       x="0"
       y="0"
       xlink:href="#use37"
       id="use38"
       transform="matrix(-1,0,0,1,120,0)" /></g><g
     id="layer2"
     style="display:none"
     transform="translate(2,2)"><path
       style="fill:#ea34b5;fill-opacity:1;stroke-width:0.05;stroke-dasharray:none"
       d="M 47.22302,13.556325 36.578581,40.260252 18.796495,30"
       id="path2" /><use
       x="0"
       y="0"
       xlink:href="#path2"
       id="use3"
       transform="matrix(-1,0,0,1,120,0)" /><use
       x="0"
       y="0"
       xlink:href="#use8"
       id="use7"
       transform="matrix(-1,0,0,1,120.05,3.3333334e-8)" /><path
       style="display:inline;fill:#ea34b5;fill-opacity:1;stroke:#ea34b5;stroke-width:0.1;stroke-dasharray:none;stroke-opacity:1"
       d="M 49.805983,20.431692 60,26.356 V 17.7 l -7.426377,-4.251314"
       id="use8" /><use
       x="0"
       y="0"
       xlink:href="#use10"
       id="use6"
       transform="matrix(-1,0,0,1,120.05,3.6666667e-8)"
       style="display:inline" /><path
       style="display:inline;fill:#ea34b5;fill-opacity:1;stroke:#ea34b5;stroke-width:0.1;stroke-dasharray:none;stroke-opacity:1"
       d="M 45.232617,31.787629 60.000002,40.371 V 32.108 L 47.909615,25.119444"
       id="use10" /><use
       x="0"
       y="0"
       xlink:href="#path3"
       id="use4"
       transform="matrix(-1,0,0,1,120.05,0)"
       style="display:inline" /><path
       style="display:inline;fill:#ea34b5;fill-opacity:1;stroke:#ea34b5;stroke-width:0.05;stroke-dasharray:none;stroke-opacity:1"
       d="M 40.890012,42.733495 60,53.761 60.122364,46.159 43.378019,36.50099"
       id="path3" /><path
       style="fill:#ea34b5;fill-opacity:1;stroke:#ea34b5;stroke-width:0.05;stroke-dasharray:none;stroke-opacity:1"
       d="M 60,6.2 V 12 L 55.001253,9.1064175 Z"
       id="path6" /><use
       x="0"
       y="0"
       xlink:href="#path6"
       id="use9"
       transform="matrix(-1,0,0,1,120,0)" /></g><g
     id="layer3"
     transform="translate(2,2)"><path
       style="fill:#ea34b5;fill-opacity:1;stroke-width:0;stroke-dasharray:none"
       d="m 13.433262,38.672657 0.03784,44.386524 4.957063,2.875853 0.1892,-19.222808 8.324839,4.843543 -0.03784,19.222807 4.881383,2.838014 0.151362,-44.348684 -5.032744,-2.951532 -0.07568,19.260647 -8.324839,-4.994904 V 41.43499 Z"
       id="path5" /><path
       d="m 41.667224,70.826685 -5.248258,3.115055 13.292212,7.381461 -0.07338,5.273064 -13.464294,-7.749915 -0.02429,17.167428 18.393192,10.618992 0.0739,-28.375014 z m -0.571541,16.586584 8.568986,4.943884 -0.04393,5.752104 -8.496639,-4.843115 z"
       style="fill:#ea34b5;stroke-width:0;stroke-dasharray:none"
       id="path8" /><path
       style="fill:#ea34b5;fill-opacity:1;stroke-width:0;stroke-dasharray:none"
       d="m 65.233692,62.393136 0.13212,44.193764 4.723249,-2.67541 V 90.005981 l 8.488637,9.050142 5.020517,-2.906615 -10.404361,-11.097985 9.477045,-17.531165 -7.131935,4.418367 -5.383843,9.314381 -0.09909,-21.634465 z"
       id="path9" /><path
       d="M 98.886987,43.044348 88.033903,49.311149 88.044243,93.591651 98.8,87.355465 106.35683,74.396167 106.34393,55.216 Z m -2.479952,7.090116 5.003825,7.822536 -0.0912,15.273152 -4.828909,8.350673 -3.561751,2.140351 0.04156,-31.540434 z"
       style="fill:#ea34b5;stroke-width:0;stroke-dasharray:none"
       id="path13" /><path
       style="display:none;fill:#80ff95;fill-opacity:0.5;stroke-width:1.23353"
       d="M -3,61.313074 V -1 H 58.676418 120.35283 V 61.313074 123.62616 H 58.676418 -3 Z m 64.242555,58.553366 c 0.46234,-0.29575 0.876695,-0.53774 0.920789,-0.53774 0.0441,0 1.56955,-0.86677 3.389901,-1.92615 1.820351,-1.05937 3.596227,-2.08687 3.946391,-2.28329 0.772871,-0.43356 2.298117,-1.31955 2.626221,-1.52552 1.008432,-0.63308 4.145179,-2.38246 4.271919,-2.38246 0.08699,0 0.182046,-0.0573 0.211226,-0.12738 0.02919,-0.0701 0.554426,-0.40932 1.16721,-0.75392 0.612785,-0.3446 1.257403,-0.71421 1.432485,-0.82136 0.175082,-0.10715 0.422985,-0.24691 0.550897,-0.31057 0.12791,-0.0636 1.174347,-0.66738 2.325414,-1.3416 2.16285,-1.26685 3.095173,-1.80105 4.040101,-2.31487 0.302399,-0.16443 0.64773,-0.3885 0.767403,-0.49793 0.119678,-0.10942 0.319909,-0.19895 0.444966,-0.19895 0.125059,0 0.227938,-0.0538 0.228621,-0.11937 6.82e-4,-0.0657 0.161836,-0.1952 0.358121,-0.28788 0.567437,-0.26791 2.061421,-1.11766 4.78204,-2.71995 1.390164,-0.81872 2.560287,-1.48859 2.600272,-1.48859 0.03999,0 0.464582,-0.250689 0.943552,-0.557082 0.478967,-0.306392 0.935968,-0.557077 1.015556,-0.557077 0.07958,0 0.24262,-0.08953 0.362293,-0.198956 0.119677,-0.109426 0.465004,-0.333423 0.767403,-0.497772 0.979199,-0.532177 4.749384,-2.710105 6.200164,-3.581657 0.30639,-0.184063 0.66451,-0.383253 0.79582,-0.442644 0.13131,-0.0594 0.61616,-0.346503 1.07746,-0.638028 0.46129,-0.291525 0.86868,-0.530046 0.90534,-0.530046 0.19941,0 4.37218,-2.498605 4.74192,-2.839409 l 0.43771,-0.403446 V 60.119337 30.255885 l -0.43771,-0.401914 c -0.24074,-0.221054 -1.47625,-0.997571 -2.7456,-1.725596 -1.26933,-0.728025 -2.6302,-1.514253 -3.02413,-1.747174 -0.39394,-0.23292 -0.82368,-0.475351 -0.95499,-0.538734 -0.13131,-0.06338 -0.38199,-0.202912 -0.55708,-0.310063 -0.17508,-0.107157 -0.78389,-0.46537 -1.3529,-0.796041 -0.56901,-0.33067 -1.142,-0.668638 -1.27331,-0.751041 -1.12641,-0.706846 -4.956688,-2.861395 -5.086902,-2.861395 -0.09104,0 -0.16554,-0.06327 -0.16554,-0.140602 0,-0.07733 -0.125342,-0.180957 -0.278537,-0.230281 -0.153197,-0.04933 -0.636661,-0.307419 -1.074364,-0.573544 -0.437704,-0.266124 -0.901369,-0.534427 -1.030368,-0.596227 -0.128998,-0.0618 -1.372064,-0.778987 -2.762369,-1.593747 -1.390304,-0.814761 -2.553212,-1.481383 -2.584237,-1.481383 -0.03103,0 -0.506942,-0.285816 -1.057591,-0.635147 -0.550648,-0.349331 -1.090707,-0.635829 -1.200134,-0.63666 -0.109426,-8.32e-4 -0.198956,-0.05743 -0.198956,-0.125781 0,-0.06835 -0.196967,-0.207906 -0.437703,-0.310124 -0.240737,-0.102225 -0.760013,-0.376325 -1.153946,-0.609122 -2.510846,-1.483803 -5.20829,-3.050521 -5.411609,-3.143146 -0.13131,-0.05983 -0.38025,-0.198752 -0.553199,-0.308736 -1.172581,-0.7456796 -1.986921,-1.2110199 -2.284626,-1.3055084 -0.19001,-0.060311 -0.345474,-0.176447 -0.345474,-0.2580881 0,-0.081648 -0.07685,-0.1484385 -0.170782,-0.1484385 -0.138288,0 -4.151965,-2.2860355 -6.67331,-3.8008602 C 69.43199,5.0424511 69.076703,4.8419645 68.948855,4.7810073 68.734932,4.6790067 62.48332,1.0859903 61.939299,0.75237266 61.807988,0.67184794 61.310236,0.37919207 60.833182,0.10202931 L 59.96581,-0.40190415 59.016544,0.11995738 C 58.494448,0.40698216 56.925456,1.3109612 55.529895,2.1288016 54.134336,2.946642 52.960811,3.6157831 52.922061,3.6157831 c -0.03875,0 -0.443042,0.2371334 -0.898426,0.5269633 -0.455384,0.2898297 -0.935406,0.5769422 -1.066717,0.6380276 -0.131311,0.061084 -0.464254,0.2481799 -0.739873,0.4157645 -0.529505,0.3219558 -5.866734,3.3950673 -6.634544,3.8200904 -0.247908,0.1372304 -0.570217,0.3220818 -0.716242,0.4107817 -0.146026,0.088699 -0.731058,0.4318208 -1.300074,0.7624924 -0.569014,0.33067 -1.142007,0.668981 -1.273319,0.751801 -0.974586,0.614685 -4.144646,2.383141 -4.27192,2.383141 -0.08699,0 -0.182045,0.05665 -0.211226,0.125901 -0.02919,0.06925 -0.4828,0.366742 -1.008044,0.661104 -0.525245,0.294361 -1.205675,0.675503 -1.512068,0.846983 -0.306392,0.171479 -2.072159,1.19903 -3.923926,2.283447 -1.851766,1.084418 -3.445405,1.971667 -3.54142,1.971667 -0.09602,0 -0.174572,0.07163 -0.174572,0.159166 0,0.08754 -0.08179,0.159165 -0.181756,0.159165 -0.09996,0 -0.635392,0.286496 -1.189836,0.63666 -0.554442,0.350162 -1.038098,0.636659 -1.074789,0.636659 -0.03668,0 -1.204232,0.666622 -2.594536,1.481383 -1.390305,0.81476 -2.633371,1.530546 -2.76237,1.590635 -0.128998,0.06009 -0.373606,0.19924 -0.543572,0.309224 -0.977963,0.632827 -1.99808,1.234541 -2.092986,1.234541 -0.06019,0 -0.47546,0.225701 -0.922845,0.50156 -0.447386,0.275857 -1.064113,0.642086 -1.370506,0.813842 -2.564063,1.437351 -4.7689556,2.774332 -5.1330688,3.112541 l -0.4377029,0.406562 v 29.863452 29.863451 l 0.4377029,0.406563 c 0.3808807,0.353782 2.8542068,1.846457 5.3718158,3.241942 0.437705,0.242615 0.936304,0.519186 1.108001,0.614602 0.171696,0.09541 0.409591,0.263017 0.528655,0.372441 0.11906,0.109427 0.286429,0.198957 0.371921,0.198957 0.08549,0 0.547326,0.250686 1.026294,0.557077 0.478968,0.306393 0.898736,0.557077 0.932816,0.557077 0.03408,0 1.196583,0.668178 2.58334,1.484838 1.386757,0.816659 2.843685,1.664383 3.237619,1.88383 0.393933,0.219447 1.110175,0.61891 1.591649,0.887695 0.481474,0.26879 2.47735,1.42654 4.435279,2.57279 1.95793,1.14625 3.618077,2.0841 3.689217,2.0841 0.07113,0 0.226759,0.0895 0.345823,0.19895 0.11906,0.10943 0.356959,0.27703 0.528656,0.37244 0.171696,0.0954 0.661856,0.36788 1.089244,0.60547 0.427387,0.23758 1.788248,1.02334 3.024133,1.74613 1.235886,0.72279 2.354502,1.36634 2.485813,1.43013 0.131312,0.0638 0.381996,0.20362 0.557077,0.31072 0.274774,0.1681 0.951448,0.57512 2.225071,1.33839 0.176862,0.10596 0.429006,0.24379 0.560316,0.30622 0.131311,0.0624 1.492172,0.84096 3.024134,1.73007 1.531963,0.88911 3.107695,1.7967 3.50163,2.01686 0.86316,0.48242 2.375548,1.36048 2.705803,1.57095 0.410875,0.26183 4.551074,2.65312 5.521333,3.189 0.508667,0.28094 1.0659,0.60765 1.238296,0.72604 0.383485,0.26334 0.69272,0.17282 1.775194,-0.51963 z m -2.645719,-1.34349 c -0.393933,-0.25433 -0.823679,-0.51192 -0.95499,-0.57244 -0.226559,-0.10435 -5.501873,-3.14743 -6.684928,-3.85613 -0.306393,-0.18354 -0.662621,-0.38396 -0.79162,-0.44535 -0.128999,-0.0615 -1.372065,-0.77825 -2.762369,-1.59301 -1.390305,-0.81477 -2.554699,-1.48138 -2.587544,-1.48138 -0.03285,0 -0.455227,-0.25301 -0.938625,-0.56224 -0.483398,-0.30922 -1.004064,-0.60927 -1.157037,-0.66677 -0.15297,-0.0575 -0.650717,-0.34167 -1.1061,-0.63151 -0.455384,-0.28983 -0.860686,-0.52696 -0.90067,-0.52696 -0.06901,0 -5.009432,-2.85631 -5.513365,-3.18755 -0.131312,-0.0863 -0.346183,-0.20446 -0.477495,-0.26254 -0.13131,-0.0581 -0.616165,-0.34412 -1.077454,-0.63564 -0.461289,-0.29153 -0.903823,-0.53005 -0.983412,-0.53005 -0.07958,0 -0.24262,-0.0895 -0.362292,-0.19896 -0.119677,-0.10943 -0.465004,-0.33342 -0.767403,-0.49777 -0.979199,-0.53219 -4.749388,-2.71012 -6.200171,-3.581671 -0.306393,-0.184063 -0.664514,-0.383253 -0.795825,-0.442644 -0.131311,-0.0594 -0.616165,-0.346502 -1.077455,-0.638028 -0.461288,-0.291524 -0.875994,-0.530045 -0.921571,-0.530045 -0.0701,0 -4.285004,-2.410061 -5.004232,-2.861396 -0.500124,-0.313843 -2.318458,-1.36137 -2.546639,-1.4671 -0.13131,-0.06085 -1.563796,-0.885147 -3.183299,-1.831785 L 8.8577881,89.800821 8.8175704,60.460697 8.7773527,31.120572 9.5338101,31.560678 c 0.4160507,0.242058 0.8997059,0.517566 1.0747879,0.612241 0.175082,0.09467 0.425765,0.253652 0.557077,0.353282 0.131311,0.09963 0.63268,0.382479 1.114155,0.628554 0.481473,0.246074 0.911272,0.486867 0.95511,0.535095 0.04383,0.04824 0.330332,0.222157 0.63666,0.386505 0.9191,0.493111 6.074743,3.466726 6.525642,3.76379 0.131311,0.08651 0.346183,0.204812 0.477495,0.262893 0.13131,0.05807 0.602559,0.335418 1.047219,0.616306 0.444659,0.280886 0.963934,0.560045 1.153946,0.620352 0.19001,0.06031 0.345474,0.176449 0.345474,0.25809 0,0.08165 0.0802,0.148438 0.178238,0.148438 0.139135,0 2.709133,1.434825 4.27838,2.388612 0.131312,0.07981 0.704305,0.41566 1.27332,0.746331 0.569014,0.33067 1.177821,0.688888 1.352902,0.79604 0.175081,0.107156 0.422933,0.246889 0.55078,0.310527 0.29161,0.145155 6.685203,3.831672 7.009556,4.041678 0.13131,0.08502 0.346184,0.203487 0.477494,0.263264 0.131311,0.05978 0.611334,0.345817 1.066718,0.635646 0.455383,0.28983 0.859674,0.526963 0.898424,0.526963 0.03875,0 1.241897,0.687324 2.67366,1.527384 3.00415,1.762632 3.721677,2.174769 4.867796,2.796002 0.457659,0.248065 1.224179,0.701834 1.703377,1.008373 0.479199,0.306539 0.902975,0.557344 0.941725,0.557344 0.03875,0 1.207976,0.666622 2.59828,1.481382 1.390306,0.814761 2.633372,1.531946 2.762369,1.593748 0.128998,0.0618 0.592664,0.328599 1.030367,0.592884 0.437704,0.264288 0.903261,0.526712 1.034574,0.583162 0.131311,0.05646 0.274559,0.145136 0.31833,0.197073 0.04376,0.05193 0.276548,0.180969 0.517285,0.286736 l 0.437704,0.192304 V 89.64102 c 0,16.15315 -0.01791,29.36372 -0.0398,29.35684 -0.02188,-0.007 -0.362099,-0.22059 -0.756034,-0.47491 z M 54.617711,92.449279 V 78.30306 l -1.94977,-1.118894 c -1.072374,-0.615391 -2.21369,-1.264919 -2.536259,-1.443395 -0.322569,-0.178477 -0.85975,-0.494736 -1.193737,-0.702801 -0.333987,-0.208064 -0.714685,-0.426328 -0.845995,-0.48503 -0.131313,-0.05871 -0.346184,-0.177362 -0.477497,-0.263687 -0.300848,-0.19778 -4.290834,-2.518568 -5.262241,-3.060799 -0.700585,-0.391062 -0.739647,-0.395578 -1.114155,-0.128807 -0.213463,0.152057 -0.746235,0.473394 -1.183938,0.714084 -2.049191,1.126837 -3.558875,2.06033 -3.49616,2.161805 0.03793,0.06138 0.302911,0.23077 0.588831,0.376414 0.28592,0.145643 0.734727,0.392492 0.99735,0.548553 0.42075,0.250026 1.957879,1.092979 5.491191,3.011331 0.569014,0.308938 1.265158,0.691195 1.546987,0.849462 0.281827,0.158266 0.998069,0.55071 1.591648,0.872096 0.59358,0.321387 1.491074,0.830398 1.994434,1.131134 l 0.915198,0.546796 v 2.614697 c 0,1.438084 -0.04911,2.614697 -0.109118,2.614697 -0.115779,0 -4.296521,-2.400739 -7.804657,-4.481722 -1.157337,-0.686519 -2.14561,-1.248216 -2.196164,-1.248216 -0.05055,0 -0.465059,-0.2387 -0.921128,-0.530443 -1.346139,-0.861115 -2.302183,-1.363088 -2.403374,-1.261897 -0.05202,0.05202 -0.09459,3.897311 -0.09459,8.545091 v 8.45051 l 0.340136,0.212418 c 0.187077,0.116828 0.598916,0.356985 0.9152,0.533677 0.833441,0.465599 5.694521,3.278826 6.58593,3.811446 0.417133,0.24923 0.783382,0.45315 0.813887,0.45315 0.0305,0 1.828583,1.03855 3.995734,2.3079 2.16715,1.26934 3.98544,2.3082 4.040644,2.30857 0.0552,3.8e-4 0.422681,0.21494 0.816614,0.47681 0.393934,0.26188 0.76996,0.47644 0.835615,0.47682 0.06566,3.7e-4 0.11937,-6.36513 0.11937,-14.145551 z M 47.8532,97.109337 c -0.787865,-0.475611 -1.53992,-0.912653 -1.671231,-0.971201 -0.131311,-0.05855 -0.687661,-0.379691 -1.236332,-0.713648 -0.548671,-0.333957 -1.035575,-0.607195 -1.082009,-0.607195 -0.04642,0 -0.476308,-0.250685 -0.955276,-0.557077 -0.47897,-0.306393 -0.928601,-0.557078 -0.999183,-0.557078 -0.07058,0 -0.284062,-0.16577 -0.474403,-0.36838 -0.326489,-0.347531 -0.346076,-0.517176 -0.346076,-2.997605 0,-1.446076 0.04594,-2.675163 0.102071,-2.731306 0.10132,-0.10132 1.143028,0.422981 2.364977,1.190298 0.350163,0.219884 0.994781,0.598137 1.432485,0.840563 1.861682,1.031111 4.158687,2.386201 4.416828,2.605654 0.245467,0.20868 0.278538,0.564573 0.278538,2.997512 0,2.109533 -0.04692,2.757591 -0.198956,2.747465 -0.109426,-0.0073 -0.843575,-0.402391 -1.631441,-0.878002 z M 31.896357,71.459838 31.936707,49.375703 30.902134,48.703393 C 30.33312,48.333622 29.81242,48.02922 29.745025,48.026942 c -0.0674,-0.0023 -0.41474,-0.188602 -0.771879,-0.414052 -0.357139,-0.225453 -0.964522,-0.585874 -1.349739,-0.80094 l -0.700395,-0.391027 v 9.466035 c 0,5.206318 -0.0609,9.503675 -0.13534,9.549679 -0.07443,0.04602 -0.654218,-0.236265 -1.288402,-0.627267 -0.634186,-0.391 -1.179672,-0.71091 -1.212192,-0.71091 -0.07279,0 -1.995697,-1.213888 -2.225867,-1.405144 -0.09154,-0.07606 -0.234788,-0.16705 -0.318329,-0.202193 -0.08355,-0.03514 -0.850232,-0.479913 -1.703755,-0.988378 l -1.551856,-0.924482 v -9.518008 -9.518007 l -2.366628,-1.375507 c -1.301644,-0.756528 -2.447631,-1.375506 -2.546639,-1.375506 -0.133045,0 -0.180014,5.76268 -0.180014,22.08564 0,20.862237 0.01543,22.095177 0.278539,22.257826 0.153196,0.0947 0.708283,0.410334 1.233528,0.701402 0.525243,0.291068 1.527984,0.868062 2.228309,1.28221 l 1.273319,0.752996 0.07959,-9.493731 c 0.07866,-9.383816 0.08326,-9.493105 0.397912,-9.439575 0.175082,0.02979 0.431406,0.155129 0.56961,0.278539 0.138205,0.12341 0.293896,0.224382 0.345981,0.224382 0.09972,0 4.643543,2.609965 6.207041,3.565315 l 0.915199,0.559217 v 9.603466 9.603465 l 1.392692,0.810977 c 0.765983,0.446036 1.750816,1.006865 2.188519,1.246284 0.437704,0.239421 0.863867,0.498088 0.94703,0.574818 0.08317,0.07672 0.208256,0.139508 0.277982,0.139508 0.06972,0 0.14493,-9.937861 0.167122,-22.084136 z m 28.649827,18.093539 0.04021,-29.297823 0.875408,-0.479461 c 0.481473,-0.263704 1.203987,-0.688286 1.605584,-0.943516 0.401597,-0.25523 0.813436,-0.464054 0.915198,-0.464054 0.101762,0 0.185022,-0.07162 0.185022,-0.159165 0,-0.08755 0.07271,-0.159165 0.161576,-0.159165 0.136172,0 1.17048,-0.559554 2.066733,-1.118088 0.383874,-0.239225 4.468936,-2.609741 5.252444,-3.047933 0.725494,-0.405748 2.268417,-1.297948 2.705803,-1.564638 0.925269,-0.564175 4.988032,-2.864249 5.059296,-2.864249 0.04868,0 0.201575,-0.09942 0.33978,-0.220937 0.138205,-0.121515 0.609401,-0.412857 1.047105,-0.647426 0.437704,-0.234569 1.032118,-0.5654 1.32092,-0.73518 0.288802,-0.169782 1.721287,-1.00071 3.183299,-1.846507 1.462013,-0.845799 2.944702,-1.703854 3.294864,-1.906792 0.350162,-0.202938 0.744095,-0.41788 0.875407,-0.477651 0.131311,-0.05977 0.596868,-0.333642 1.034572,-0.608604 0.437703,-0.274962 0.903261,-0.54991 1.034571,-0.610996 0.131313,-0.06108 0.489433,-0.261493 0.795827,-0.445346 0.884644,-0.530842 4.624519,-2.697747 5.411606,-3.135517 0.393934,-0.219102 0.856722,-0.476434 1.028419,-0.571851 0.171696,-0.09541 0.409591,-0.263015 0.528657,-0.372442 0.11906,-0.109426 0.27868,-0.198956 0.35471,-0.198956 0.076,0 1.736165,-0.938218 3.689205,-2.084929 1.95305,-1.14671 3.94492,-2.304397 4.4264,-2.572638 0.48146,-0.268241 1.12609,-0.62742 1.43248,-0.798176 0.3064,-0.170756 0.86148,-0.488171 1.23352,-0.705367 l 0.67646,-0.3949 v 29.296265 29.296267 l -1.47228,0.864018 c -0.80975,0.475209 -1.69859,0.996827 -1.97519,1.159152 -1.3859,0.813314 -2.4309,1.417406 -3.07829,1.779504 -0.39394,0.220336 -2.17277,1.247819 -3.95295,2.283297 -1.780181,1.035479 -3.269825,1.882689 -3.310313,1.882689 -0.06546,0 -1.220835,0.69335 -2.057183,1.234541 -0.169967,0.109981 -0.416467,0.248894 -0.547778,0.30869 -0.131311,0.0598 -1.249926,0.700092 -2.485812,1.422887 -1.235887,0.72278 -2.596746,1.50855 -3.024134,1.74613 -0.427388,0.2376 -0.917548,0.51005 -1.089245,0.60547 -0.171696,0.0954 -0.40959,0.26301 -0.528654,0.37244 -0.11906,0.10943 -0.273509,0.19896 -0.343212,0.19896 -0.10348,0 -1.411045,0.7362 -2.556336,1.43931 -1.383954,0.84961 -4.958704,2.85814 -5.086904,2.85814 -0.09104,0 -0.166097,0.0537 -0.16678,0.11936 -6.84e-4,0.0657 -0.161837,0.1952 -0.358122,0.28788 -0.567436,0.26792 -2.06142,1.11767 -4.782039,2.71995 -1.390165,0.81871 -2.555456,1.48858 -2.589537,1.48858 -0.03408,0 -0.43938,0.23853 -0.900668,0.53006 -0.461289,0.29151 -0.946142,0.57893 -1.077455,0.63871 -0.258789,0.11781 -0.238372,0.10609 -4.21787,2.41253 -1.488193,0.86251 -2.884865,1.66668 -3.103717,1.78708 -0.218851,0.1204 -0.684409,0.39113 -1.034573,0.60164 -0.350163,0.21053 -0.690567,0.38589 -0.756456,0.38969 -0.06589,0.004 -0.101701,-13.17713 -0.07958,-29.290939 z m 5.929317,16.405473 c 0.572099,-0.35016 1.062504,-0.63666 1.089791,-0.63666 0.02729,0 0.601974,-0.31478 1.277089,-0.69951 l 1.227478,-0.69951 -0.0098,-6.860834 c -0.0054,-3.773454 0.05017,-6.860825 0.123413,-6.860825 0.07325,0 1.217999,1.163892 2.543897,2.586429 4.862522,5.216934 5.917183,6.307785 5.987894,6.193369 0.03972,-0.06427 0.381855,-0.278103 0.760301,-0.475195 0.378446,-0.197092 0.829588,-0.44518 1.002537,-0.551309 1.041819,-0.639306 1.989542,-1.192367 2.508733,-1.464018 l 0.594859,-0.311253 -0.522581,-0.561746 c -0.28742,-0.308962 -1.060626,-1.134742 -1.718236,-1.835067 -0.65761,-0.700326 -1.656921,-1.774688 -2.22069,-2.387474 -0.56377,-0.612785 -1.746937,-1.86621 -2.62926,-2.785387 -2.370555,-2.469572 -3.250969,-3.438125 -3.250969,-3.576433 0,-0.06799 0.322309,-0.654516 0.716242,-1.303376 0.393934,-0.648862 0.716242,-1.205701 0.716242,-1.237419 0,-0.03172 0.286497,-0.529254 0.63666,-1.105633 0.350163,-0.576379 0.636659,-1.083678 0.636659,-1.127331 0,-0.04365 0.250686,-0.471251 0.557079,-0.950221 0.306391,-0.478968 0.557077,-0.903637 0.557077,-0.943708 0,-0.04007 0.787865,-1.414065 1.750814,-3.05332 0.962948,-1.639254 1.750814,-3.010021 1.750814,-3.04615 0,-0.03613 0.250685,-0.457572 0.557077,-0.93654 0.306393,-0.478969 0.557077,-0.909966 0.557077,-0.957769 0,-0.0478 0.356825,-0.691033 0.792941,-1.429395 0.436118,-0.738361 0.751242,-1.342477 0.700278,-1.342477 -0.05097,0 -0.819628,0.410282 -1.708139,0.911736 -0.888512,0.501453 -1.87282,1.05654 -2.187353,1.233527 -2.647995,1.490025 -3.815744,2.254155 -3.998206,2.616274 -0.203156,0.403191 -1.263887,2.248239 -1.563296,2.719216 -0.08348,0.131311 -0.752813,1.28523 -1.487415,2.564264 -1.599737,2.785345 -1.843264,3.165673 -2.026991,3.165673 -0.08029,0 -0.14086,-4.54952 -0.14086,-10.580282 V 59.650212 l -0.915197,0.548647 c -0.503361,0.301755 -1.577723,0.919945 -2.387475,1.373754 l -1.472276,0.825109 v 22.098889 c 0,12.154387 0.03455,22.098899 0.07678,22.098899 0.04222,0 0.54486,-0.2865 1.116959,-0.63666 z M 90.191078,92.340788 c 0.437705,-0.243683 1.476255,-0.851708 2.307892,-1.351163 0.831636,-0.499456 1.785764,-1.06181 2.120284,-1.249676 0.334519,-0.187865 1.950869,-1.127057 3.591889,-2.087092 3.309447,-1.936109 2.894967,-1.50825 4.084097,-4.215857 0.23067,-0.525244 0.59192,-1.333139 0.80276,-1.795323 0.21084,-0.462182 0.38334,-0.868791 0.38334,-0.903575 0,-0.03478 0.24043,-0.587747 0.53427,-1.228811 0.29385,-0.641063 0.80446,-1.774375 1.13469,-2.518471 0.33022,-0.744096 0.73442,-1.653376 0.89821,-2.02062 0.27979,-0.627334 0.2978,-1.222508 0.2978,-9.840457 v -9.172737 l -0.61871,-1.062343 c -0.3403,-0.584287 -0.75921,-1.313026 -0.93091,-1.619419 -1.3697,-2.444172 -5.594507,-9.702421 -5.808383,-9.97883 -0.151632,-0.195965 -0.353231,-0.102625 -2.612111,1.209411 -0.512971,0.297952 -1.183359,0.682722 -1.489751,0.855045 -0.306393,0.172325 -1.971656,1.137113 -3.700585,2.143977 l -3.143508,1.83066 v 22.119357 22.119359 l 0.676451,-0.395187 c 0.372048,-0.217352 1.034571,-0.594563 1.472275,-0.838248 z m 2.880531,-7.667963 c -0.05232,-0.05232 -0.09514,-7.382082 -0.09514,-16.28834 V 52.191288 l 1.521035,-0.890506 c 0.836571,-0.489779 1.623539,-0.890506 1.748819,-0.890506 0.201157,0 0.772591,0.757865 1.080099,1.432484 0.05985,0.131311 0.291,0.525243 0.513655,0.875407 0.222656,0.350162 0.488557,0.833626 0.590891,1.074363 0.102338,0.240737 0.241985,0.437704 0.310333,0.437704 0.06835,0 0.12427,0.07271 0.12427,0.161576 0,0.137576 0.2672,0.629397 1.193729,2.197254 0.0876,0.148134 0.42776,0.746093 0.75603,1.328797 l 0.59687,1.059463 v 6.26351 c 0,5.961448 -0.0154,6.292181 -0.31863,6.858021 -0.17526,0.326981 -0.27392,0.594511 -0.21926,0.594511 0.0547,0 0.0268,0.08953 -0.0618,0.198958 -0.0887,0.109425 -0.41953,0.826019 -0.73528,1.592432 -0.315758,0.76641 -0.717555,1.715431 -0.892878,2.108934 -0.175328,0.393503 -0.466594,1.046706 -0.647258,1.451561 -0.180663,0.404857 -0.472685,1.101953 -0.648935,1.549104 -0.423901,1.075445 -1.0436,2.472699 -1.316006,2.967238 -0.120553,0.218851 -0.817739,0.760218 -1.549311,1.203037 -1.472913,0.891551 -1.810665,1.048757 -1.951226,0.908195 z M 59.616113,59.257012 c -0.166668,-0.115705 -0.661157,-0.402605 -1.09886,-0.637555 -0.834328,-0.447849 -0.912509,-0.493548 -2.267312,-1.325299 -0.463422,-0.284507 -0.879875,-0.517285 -0.925451,-0.517285 -0.07011,0 -4.285005,-2.41006 -5.004232,-2.861396 -0.13131,-0.0824 -0.704304,-0.420371 -1.273319,-0.751041 -0.569016,-0.330671 -1.154048,-0.673793 -1.300073,-0.762492 -0.146026,-0.0887 -0.468336,-0.273578 -0.716242,-0.41084 -0.867497,-0.480318 -3.012375,-1.711394 -4.748196,-2.725276 -0.962948,-0.562453 -1.85825,-1.072714 -1.989562,-1.133915 -0.131311,-0.0612 -0.525244,-0.291087 -0.875407,-0.510858 -0.350162,-0.219771 -0.779908,-0.47086 -0.95499,-0.557976 -0.175081,-0.08712 -0.569014,-0.308981 -0.875407,-0.49303 -0.643257,-0.386407 -6.49174,-3.768633 -7.321588,-4.234136 -0.75181,-0.421727 -2.251996,-1.295112 -2.546638,-1.482613 -0.538408,-0.342624 -5.449718,-3.17622 -5.505162,-3.17622 -0.03299,0 -0.528087,-0.286497 -1.100184,-0.636659 -0.572099,-0.350164 -1.066791,-0.63666 -1.099314,-0.63666 -0.03253,0 -1.624903,-0.918979 -3.538618,-2.042175 -3.448581,-2.024039 -4.141532,-2.422223 -6.065911,-3.485605 -0.5471312,-0.302335 -0.9947819,-0.575434 -0.9947819,-0.606887 0,-0.03146 0.4476507,-0.314282 0.9947819,-0.628511 0.547129,-0.31423 1.102217,-0.636014 1.233528,-0.715076 1.558747,-0.938519 4.94437,-2.867467 5.032881,-2.867467 0.06321,0 0.227991,-0.09942 0.366194,-0.220938 0.138205,-0.121514 0.609401,-0.412857 1.047105,-0.647426 0.437704,-0.234569 1.046509,-0.572858 1.352902,-0.751752 3.877707,-2.264097 5.283843,-3.07425 6.200172,-3.572259 0.302398,-0.164349 0.647729,-0.388346 0.767402,-0.497771 0.119677,-0.109427 0.282705,-0.198956 0.362293,-0.198956 0.123904,0 0.959496,-0.481072 2.144327,-1.234542 0.172948,-0.109981 0.419105,-0.248793 0.547018,-0.308465 0.127911,-0.05967 1.180026,-0.663453 2.338035,-1.341734 1.158007,-0.67828 2.521647,-1.464049 3.030314,-1.746152 0.508666,-0.282103 1.065327,-0.591076 1.237022,-0.686607 0.171697,-0.09552 0.409591,-0.263221 0.528655,-0.372647 0.11906,-0.109427 0.286429,-0.198956 0.371923,-0.198956 0.08549,0 0.547324,-0.250685 1.026292,-0.557077 0.47897,-0.306393 0.897726,-0.557078 0.930571,-0.557078 0.03285,0 1.23116,-0.687322 2.662923,-1.527383 1.431762,-0.840061 2.906607,-1.6975747 3.277431,-1.9055854 2.014031,-1.1297525 6.576219,-3.7482371 7.045273,-4.0436622 0.131311,-0.082708 0.704305,-0.4209193 1.273319,-0.75159 0.569014,-0.3306707 1.177822,-0.6888887 1.352902,-0.7960403 0.175082,-0.1071566 0.422197,-0.2466058 0.549144,-0.3099006 0.126949,-0.063293 1.252938,-0.7107208 2.502197,-1.4387271 1.249258,-0.7280062 2.296428,-1.3236475 2.327041,-1.3236475 0.05782,0 3.224211,1.8091113 4.695805,2.6829489 0.463442,0.2751928 0.87389,0.5003499 0.912109,0.5003499 0.06089,0 1.144275,0.6464108 2.06911,1.2345411 0.172947,0.1099815 0.419994,0.2491346 0.548993,0.3092235 0.128998,0.060085 1.372065,0.7758769 2.762368,1.5906372 1.390306,0.8147591 2.554701,1.4813808 2.587546,1.4813808 0.03285,0 0.437135,0.2385219 0.898425,0.5300462 0.461288,0.2915254 0.963865,0.5757042 1.116837,0.6315085 0.152971,0.0558 0.673638,0.354465 1.157036,0.663692 0.483398,0.309226 0.906789,0.562228 0.940869,0.562228 0.06155,0 5.045772,2.887256 5.50263,3.187558 0.13131,0.08631 0.346183,0.204453 0.477493,0.262534 0.131312,0.05807 0.60256,0.335419 1.04722,0.616305 0.444659,0.280888 0.963935,0.560047 1.153946,0.620354 0.190011,0.06031 0.345475,0.176446 0.345475,0.258089 0,0.08165 0.07715,0.148439 0.171434,0.148439 0.137173,0 3.262286,1.737984 4.285184,2.383141 0.131311,0.08282 0.704304,0.42113 1.27332,0.751801 0.569014,0.33067 1.154046,0.673791 1.300072,0.762492 0.146025,0.0887 0.468335,0.273577 0.716242,0.41084 0.867497,0.480319 3.012375,1.711394 4.748196,2.725275 0.962944,0.562453 1.858239,1.072714 1.989549,1.133916 0.13131,0.06119 0.52525,0.291087 0.87542,0.510857 0.35016,0.219772 0.7799,0.470861 0.95498,0.557977 0.17508,0.08712 0.56901,0.308659 0.87541,0.492318 0.30639,0.18366 1.73888,1.016299 3.18329,1.85031 4.12356,2.380938 4.2045,2.443257 3.47449,2.67495 -0.19001,0.06031 -0.72375,0.351631 -1.1861,0.647384 -0.46233,0.295756 -0.87239,0.537738 -0.91125,0.537738 -0.0712,0 -4.82577,2.749183 -6.49441,3.755204 -0.49466,0.298237 -0.97812,0.54225 -1.07435,0.54225 -0.0962,0 -0.17497,0.07162 -0.17497,0.159164 0,0.08755 -0.0727,0.159165 -0.161568,0.159165 -0.13786,0 -1.269863,0.614131 -2.066733,1.121234 -0.570138,0.362815 -5.451407,3.176219 -5.510758,3.176219 -0.03609,0 -0.643012,0.358121 -1.348735,0.795825 -0.705725,0.437704 -1.31855,0.795824 -1.361836,0.795824 -0.06481,0 -2.206569,1.228545 -4.616873,2.648313 -1.199573,0.706599 -2.41324,1.408631 -3.078294,1.78061 -0.393933,0.220334 -2.172759,1.247817 -3.952948,2.283296 -1.780186,1.035478 -3.264999,1.882689 -3.299582,1.882689 -0.03458,0 -0.440294,0.23852 -0.901583,0.530044 -0.461289,0.291525 -0.946143,0.578639 -1.077454,0.638028 -0.131311,0.0594 -0.489431,0.25841 -0.795824,0.442264 -0.884646,0.530842 -4.624522,2.697747 -5.411609,3.135517 -0.393933,0.219101 -0.856721,0.476435 -1.028417,0.571852 -0.171697,0.09541 -0.409592,0.263016 -0.528655,0.37244 -0.11906,0.109426 -0.28643,0.198957 -0.371922,0.198957 -0.08549,0 -0.528029,0.237134 -0.983412,0.526964 -0.455384,0.289829 -0.935406,0.576941 -1.066719,0.638027 -0.13131,0.06108 -0.489431,0.259844 -0.795824,0.441686 -1.840897,1.092558 -1.845651,1.094476 -2.164021,0.873462 z m 4.452081,-10.182948 c 1.739907,-1.015899 3.189036,-1.847087 3.220287,-1.847087 0.03124,0 0.5249,-0.286497 1.096999,-0.63666 0.572099,-0.350163 1.065161,-0.63666 1.095694,-0.63666 0.03053,0 1.2132,-0.68043 2.628144,-1.512066 1.414946,-0.831638 2.600643,-1.512067 2.634879,-1.512067 0.03425,0 0.639659,-0.358121 1.345384,-0.795826 0.705724,-0.437704 1.316884,-0.795824 1.358134,-0.795824 0.07221,0 3.370625,-1.902521 6.100433,-3.518715 0.723425,-0.428306 1.353577,-0.778738 1.40034,-0.778738 0.04677,0 0.457608,-0.237134 0.912991,-0.526964 0.455384,-0.28983 0.935407,-0.57587 1.066718,-0.635646 0.13131,-0.05978 0.346184,-0.179465 0.477495,-0.265977 0.302697,-0.199424 4.635721,-2.709196 5.669112,-3.28366 2.187444,-1.216005 1.970805,-0.716366 1.970805,-4.545299 0,-1.813734 -0.05372,-3.328047 -0.119368,-3.365139 -0.06566,-0.03709 -1.122114,0.529054 -2.347683,1.258104 -1.22557,0.729051 -2.31784,1.328167 -2.427266,1.331368 -0.109427,0.0032 -0.198956,0.07745 -0.198956,0.164987 0,0.08755 -0.08179,0.159165 -0.181757,0.159165 -0.09996,0 -0.635391,0.286496 -1.189835,0.63666 -0.554443,0.350162 -1.042826,0.636659 -1.085292,0.636659 -0.04247,0 -1.23256,0.680431 -2.644652,1.512067 -1.412091,0.831637 -2.598469,1.512067 -2.636395,1.512067 -0.03793,0 -0.52259,0.286497 -1.077034,0.63666 -0.554444,0.350163 -1.089869,0.636659 -1.189835,0.636659 -0.09996,0 -0.181757,0.07162 -0.181757,0.159165 0,0.08755 -0.07486,0.159165 -0.166374,0.159165 -0.0915,0 -1.685144,0.887008 -3.541419,1.971127 -1.856276,1.084122 -3.625732,2.111673 -3.932124,2.283449 -0.593141,0.332539 -2.149175,1.234106 -2.54664,1.475524 -0.878087,0.533348 -4.961857,2.864806 -5.017981,2.864806 -0.03802,0 -0.446535,0.238522 -0.907822,0.530046 -0.461289,0.291524 -0.946144,0.577567 -1.077455,0.635647 -0.131311,0.05809 -0.346184,0.176538 -0.477494,0.263237 -0.131312,0.08671 -0.687513,0.413548 -1.236005,0.726331 l -0.997256,0.568694 -0.435229,-0.304651 c -0.239375,-0.167559 -0.757536,-0.482725 -1.151469,-0.700367 -1.185152,-0.654783 -6.083904,-3.492253 -6.732458,-3.899598 -0.332534,-0.208858 -0.762278,-0.448097 -0.954989,-0.531643 -0.192711,-0.08355 -0.489447,-0.241606 -0.659412,-0.35124 -0.854798,-0.551379 -1.991817,-1.233908 -2.055557,-1.233908 -0.03959,0 -1.235423,-0.680431 -2.657405,-1.512068 -1.421982,-0.831636 -2.612064,-1.512067 -2.644628,-1.512067 -0.03256,0 -0.326376,-0.167678 -0.652913,-0.372619 -0.326538,-0.204939 -0.916014,-0.551992 -1.309948,-0.771229 -0.653978,-0.363958 -1.776217,-1.012241 -3.078294,-1.778231 -2.78974,-1.641159 -4.584477,-2.648693 -4.71816,-2.648693 -0.08899,0 -0.161793,-0.07162 -0.161793,-0.159165 0,-0.08755 -0.07036,-0.159165 -0.156362,-0.159165 -0.08601,0 -0.624443,-0.286497 -1.19654,-0.636659 -0.5721,-0.350164 -1.068193,-0.63666 -1.102431,-0.63666 -0.03423,0 -1.217597,-0.680431 -2.629689,-1.512067 -1.412091,-0.831637 -2.600427,-1.512068 -2.640749,-1.512068 -0.04032,0 -0.0733,1.516375 -0.0733,3.369722 0,2.912203 0.03576,3.409244 0.263416,3.660794 0.144878,0.16009 0.327379,0.291072 0.405558,0.291072 0.07818,0 0.534026,0.250684 1.012994,0.557077 0.478968,0.306393 0.906846,0.557077 0.950839,0.557077 0.044,0 1.707865,0.952564 3.697495,2.11681 1.989629,1.164245 3.724944,2.167599 3.856255,2.229676 0.13131,0.06209 0.489432,0.26304 0.795824,0.446582 0.306393,0.183542 1.917939,1.116411 3.581212,2.073042 1.663274,0.95663 3.13157,1.805363 3.262881,1.886071 0.368509,0.226498 1.925409,1.12907 2.546639,1.476347 0.306392,0.171278 2.077255,1.198829 3.935248,2.283447 1.857994,1.084619 3.451632,1.972035 3.541421,1.972035 0.08979,0 0.16325,0.05591 0.16325,0.12427 0,0.06835 0.196966,0.207998 0.437703,0.310333 0.240738,0.102337 0.7242,0.368235 1.074363,0.59089 0.350163,0.222656 0.744097,0.455357 0.875407,0.517113 0.131311,0.06175 1.239335,0.702966 2.462275,1.42491 l 2.223528,1.312627 0.482276,-0.292986 c 0.265253,-0.16114 1.905837,-1.124174 3.645744,-2.14007 z m 1.255752,-15.072131 c 0.417133,-0.254727 0.796601,-0.463141 0.843262,-0.463141 0.04666,0 0.457423,-0.237133 0.912807,-0.526963 0.455383,-0.289829 0.935407,-0.575872 1.066717,-0.635647 0.131311,-0.05978 0.346185,-0.178245 0.477495,-0.263263 0.324353,-0.210006 6.717946,-3.896524 7.009556,-4.041678 0.127848,-0.06364 0.378052,-0.202428 0.55601,-0.30842 0.177958,-0.105998 1.664161,-0.971461 3.302673,-1.923262 L 82.471578,24.10901 V 20.624911 17.14081 l -0.596868,0.374616 c -0.328278,0.206038 -0.919179,0.553292 -1.313112,0.771673 -2.057706,1.140716 -2.747507,1.53629 -6.028949,3.457367 -1.959042,1.146896 -3.598659,2.085265 -3.643594,2.085265 -0.04493,0 -0.535337,0.286498 -1.089781,0.63666 -0.554444,0.350162 -1.03911,0.63666 -1.077034,0.63666 -0.06641,0 -5.021961,2.867008 -5.509621,3.187556 -0.13131,0.0863 -0.346183,0.205841 -0.477494,0.265617 -0.131312,0.05978 -0.596868,0.335532 -1.034573,0.612793 -0.437704,0.277261 -1.047506,0.594292 -1.355117,0.704515 -0.650004,0.232909 -0.154423,0.468986 -5.206352,-2.480119 -1.857993,-1.084618 -3.41443,-1.972033 -3.458747,-1.972033 -0.04432,0 -0.457995,-0.23852 -0.919284,-0.530045 -0.461288,-0.291526 -0.946142,-0.578638 -1.077454,-0.638028 -0.13131,-0.0594 -0.489433,-0.258361 -0.795824,-0.442155 -1.980504,-1.188036 -7.3293,-4.278874 -7.404731,-4.278874 -0.05022,0 -0.483198,-0.250686 -0.962166,-0.557078 -0.478969,-0.306392 -0.904012,-0.557078 -0.94454,-0.557078 -0.04054,0 -0.533582,-0.281484 -1.095673,-0.625523 -0.562091,-0.344037 -1.064723,-0.582785 -1.116957,-0.530549 -0.05224,0.05224 -0.0949,1.605051 -0.0948,3.4507 l 1.62e-4,3.355728 0.835454,0.462544 c 0.459499,0.254399 2.038017,1.167608 3.507817,2.029353 1.469799,0.861745 2.703926,1.566809 2.742504,1.566809 0.03858,0 0.447561,0.238521 0.908849,0.530046 0.461288,0.291525 0.946143,0.578637 1.077454,0.638027 0.131312,0.0594 0.489432,0.258824 0.795825,0.443185 1.05719,0.636127 6.446809,3.738327 6.684928,3.847763 0.131311,0.06034 0.380251,0.199713 0.553199,0.309695 0.893914,0.568468 2.00721,1.234542 2.06345,1.234542 0.03511,0 0.833889,0.454812 1.775073,1.010694 l 1.711242,1.010696 2.320336,-1.343379 c 1.276184,-0.738858 2.661624,-1.551791 3.078759,-1.80652 z m -3.476703,-12.30607 c 0.969809,-0.560841 2.013974,-1.169032 2.320366,-1.351533 0.306393,-0.182502 0.664514,-0.381801 0.795825,-0.442886 0.131311,-0.06108 0.611333,-0.348198 1.066717,-0.638027 0.455383,-0.28983 0.861481,-0.526963 0.902439,-0.526963 0.04095,0 0.778546,-0.411841 1.639087,-0.9152 l 1.564618,-0.915198 -0.04299,-3.391967 -0.04299,-3.391968 -0.354927,0.111425 c -0.195211,0.06129 -0.732346,0.352152 -1.193635,0.646371 -0.461287,0.294221 -0.866661,0.534947 -0.900827,0.534947 -0.03416,0 -1.403328,0.787867 -3.042582,1.750815 -1.639256,0.962947 -3.008006,1.750815 -3.041668,1.750815 -0.03366,0 -0.344857,0.179059 -0.691541,0.397911 -0.346683,0.218852 -0.758378,0.397913 -0.914878,0.397913 -0.156501,0 -0.548057,-0.179061 -0.870126,-0.397913 -0.32207,-0.218852 -0.619275,-0.397911 -0.660457,-0.397911 -0.04117,0 -0.612344,-0.317761 -1.269252,-0.706136 -1.824956,-1.078944 -5.259599,-3.054365 -6.403503,-3.682951 l -1.02333,-0.562328 0.0013,3.470488 0.0013,3.470488 0.595556,0.328991 c 0.700193,0.386795 3.692654,2.115657 4.495098,2.596995 0.306392,0.183787 0.658572,0.38284 0.78262,0.442341 0.12405,0.05951 1.125028,0.633109 2.224394,1.274687 1.099368,0.641579 2.066623,1.166506 2.149456,1.166506 0.08283,0 0.944087,-0.458871 1.913896,-1.019713 z"
       id="path4" /></g><g
     id="layer4"
     style="display:none"><path
       style="display:inline;opacity:1;fill:#ea34b5;fill-opacity:1;stroke:#ea34b5;stroke-width:0;stroke-dasharray:none;stroke-opacity:1"
       d="M 62,8.2 V 55.8 L 20.8,32 Z"
       id="path10" /><rect
       style="display:inline;fill:#5cea34;fill-opacity:0.5;stroke:#ea34b5;stroke-width:0;stroke-dasharray:none;stroke-opacity:1"
       id="rect9"
       width="4.8994608"
       height="99.635849"
       x="35.869675"
       y="-8.7390461"
       transform="matrix(0.96910335,-0.24665502,0.2467259,0.96908531,0,0)" /><rect
       style="display:inline;fill:#5cea34;fill-opacity:0.5;stroke:#ea34b5;stroke-width:0;stroke-dasharray:none;stroke-opacity:1"
       id="rect9-7"
       width="4.8994608"
       height="99.635849"
       x="-22.206388"
       y="12.824462"
       transform="matrix(0.50012101,-0.86595553,0.86599212,0.50005765,0,0)" /><rect
       style="display:inline;fill:#5cea34;fill-opacity:0.5;stroke:#ea34b5;stroke-width:0;stroke-dasharray:none;stroke-opacity:1"
       id="rect9-7-9"
       width="4.8994608"
       height="99.635849"
       x="23.864391"
       y="-13.781976"
       transform="matrix(0.50012101,-0.86595553,0.86599212,0.50005765,0,0)" /><rect
       style="display:inline;fill:#5cea34;fill-opacity:0.5;stroke:#ea34b5;stroke-width:0;stroke-dasharray:none;stroke-opacity:1"
       id="rect9-7-9-0"
       width="4.8994608"
       height="99.635849"
       x="-5.1463456"
       y="2.9720757"
       transform="matrix(0.50012101,-0.86595553,0.86599212,0.50005765,0,0)" /><rect
       style="display:inline;fill:#5cea34;fill-opacity:0.5;stroke:#ea34b5;stroke-width:0;stroke-dasharray:none;stroke-opacity:1"
       id="rect9-7-9-0-0"
       width="4.8994608"
       height="99.635849"
       x="10.181716"
       y="-5.880064"
       transform="matrix(0.50012101,-0.86595553,0.86599212,0.50005765,0,0)" /><rect
       style="display:inline;fill:#5cea34;fill-opacity:0.5;stroke:#ea34b5;stroke-width:0;stroke-dasharray:none;stroke-opacity:1"
       id="rect9-7-0"
       width="4.8994608"
       height="99.635849"
       x="-38.086956"
       y="-25.766001"
       transform="matrix(-0.49987898,-0.86609526,0.86605869,-0.49994235,0,0)" /></g><g
     id="g97"
     style="display:none;fill:#ea34b5;fill-opacity:1;stroke-width:0.05;stroke-dasharray:none"><path
       d="m 37.858154,22.145935 -4.897892,2.829285 12.207007,7.049182 -1.688786,-6.633187 z"
       style="display:inline;fill:#ea34b5;fill-opacity:1;stroke:#ea34b5;stroke-width:0.05;stroke-dasharray:none"
       id="path97" /><path
       d="m 42.037744,19.731612 -4.17959,2.414323 5.620329,3.24528 z"
       style="display:inline;opacity:1;fill:#ea34b5;fill-opacity:1;stroke:#ea34b5;stroke-width:0.05;stroke-dasharray:none"
       id="path96" /><path
       d="M 32.960262,24.97522 20.803381,31.998047 49.358744,48.486963 45.167269,32.024402 Z"
       style="display:inline;opacity:1;fill:#ea34b5;fill-opacity:1;stroke:#ea34b5;stroke-width:0.05;stroke-dasharray:none"
       id="path95" /><path
       d="M 61.999833,55.786259 V 41.744222 l -10.905277,-6.29729 4.190958,16.462561 z"
       style="display:inline;opacity:1;fill:#ea34b5;fill-opacity:1;stroke:#ea34b5;stroke-width:0.05;stroke-dasharray:none"
       id="path94" /><path
       d="m 48.283358,16.123564 -1.838131,1.06195 2.960543,11.628231 12.594063,7.272424 V 24.04401 Z"
       style="display:inline;opacity:1;fill:#ea34b5;fill-opacity:1;stroke:#ea34b5;stroke-width:0.05;stroke-dasharray:none"
       id="path93" /><path
       d="m 61.999833,8.2439412 -0.03772,-0.022221 -8.780859,5.0725588 8.818583,5.092196 z"
       style="display:inline;opacity:1;fill:#ea34b5;fill-opacity:1;stroke:#ea34b5;stroke-width:0.05;stroke-dasharray:none"
       id="path92" /></g><g
     id="g86"
     style="display:inline;stroke-width:0.1;stroke-dasharray:none"><path
       d="M 61.999833,55.786259 V 46.273145 L 46.383215,37.255607 43.302783,44.989502 Z"
       style="display:inline;opacity:1;fill:#ea34b5;fill-opacity:1;stroke:#ea34b5;stroke-width:0.1;stroke-dasharray:none"
       id="path86" /><path
       d="m 48.215145,32.655888 13.784688,7.959721 V 28.572933 l -9.884668,-5.707662 z"
       style="display:inline;opacity:1;fill:#ea34b5;fill-opacity:1;stroke:#ea34b5;stroke-width:0.1;stroke-dasharray:none"
       id="path85" /><path
       d="m 61.999833,8.2439412 -0.03772,-0.022221 -5.214152,3.0122198 -2.800862,7.031612 8.052738,4.649845 z"
       style="display:inline;opacity:1;fill:#ea34b5;fill-opacity:1;stroke:#ea34b5;stroke-width:0.1;stroke-dasharray:none"
       id="path84" /><path
       d="m 49.897729,15.191321 -0.63717,0.367936 0.398942,0.230477 z"
       style="display:inline;opacity:1;fill:#ea34b5;fill-opacity:1;stroke:#ea34b5;stroke-width:0.1;stroke-dasharray:none"
       id="path83" /><path
       d="m 49.260559,15.559257 -4.897892,2.829285 3.464388,2.000911 1.832446,-4.599719 z"
       style="display:inline;fill:#ea34b5;fill-opacity:1;stroke:#ea34b5;stroke-width:0.1;stroke-dasharray:none"
       id="path82" /><path
       d="m 40.994914,20.334159 -6.850228,3.956865 -0.07751,0.19482 4.287594,2.475818 z"
       style="display:inline;fill:#ea34b5;fill-opacity:1;stroke:#ea34b5;stroke-width:0.1;stroke-dasharray:none"
       id="path81" /><path
       d="m 38.354765,26.961662 -1.83193,4.599719 5.572787,3.217891 1.831929,-4.599719 z"
       style="display:inline;fill:#ea34b5;fill-opacity:1;stroke:#ea34b5;stroke-width:0.1;stroke-dasharray:none"
       id="path80" /><path
       d="m 33.442403,39.295793 3.080432,-7.734412 -4.287593,-2.475818 -3.080949,7.734412 z"
       style="display:inline;fill:#ea34b5;fill-opacity:1;stroke:#ea34b5;stroke-width:0.1;stroke-dasharray:none"
       id="path79" /><path
       d="m 32.235242,29.085563 4.287593,2.475818 1.83193,-4.599719 -4.287594,-2.475818 z"
       style="display:inline;fill:#ea34b5;fill-opacity:1;stroke:#ea34b5;stroke-width:0.1;stroke-dasharray:none"
       id="path78" /><path
       d="m 33.937463,24.410913 -4.897892,2.829285 3.195671,1.845365 1.831929,-4.599719 z"
       style="display:inline;fill:#ea34b5;fill-opacity:1;stroke:#ea34b5;stroke-width:0.1;stroke-dasharray:none"
       id="path77" /><path
       d="m 44.362667,18.388542 -3.367753,1.945617 -2.640149,6.627503 5.572786,3.217891 3.899504,-9.7901 z"
       style="display:inline;opacity:1;fill:#ea34b5;fill-opacity:1;stroke:#ea34b5;stroke-width:0.1;stroke-dasharray:none"
       id="path76" /><path
       d="m 39.014673,42.513684 3.080949,-7.734412 -5.572787,-3.217891 -3.080432,7.734412 z"
       style="display:inline;opacity:1;fill:#ea34b5;fill-opacity:1;stroke:#ea34b5;stroke-width:0.1;stroke-dasharray:none"
       id="path75" /><path
       d="m 29.039571,27.240198 -8.23619,4.757849 8.350912,4.821928 3.080949,-7.734412 z"
       style="display:inline;opacity:1;fill:#ea34b5;fill-opacity:1;stroke:#ea34b5;stroke-width:0.1;stroke-dasharray:none"
       id="path74" /></g><g
     id="g55"
     style="display:none;fill:#ea34b5;fill-opacity:1;stroke-width:0.05;stroke-dasharray:none"><path
       d="m 27.506331,28.125932 -6.684863,3.86178 8.339543,4.815726 2.500622,-6.278169 z"
       style="display:inline;opacity:1;fill:#ea34b5;fill-opacity:1;stroke:#ea34b5;stroke-width:0.05;stroke-dasharray:none"
       id="path55" /><path
       d="m 32.404224,25.296647 -4.897893,2.829285 4.155302,2.399337 1.83193,-4.59972 z"
       style="display:inline;fill:#ea34b5;fill-opacity:1;stroke:#ea34b5;stroke-width:0.05;stroke-dasharray:none"
       id="path54" /><path
       d="m 34.144686,24.291024 -1.740462,1.005623 1.089339,0.628902 z"
       style="display:inline;opacity:1;fill:#ea34b5;fill-opacity:1;stroke:#ea34b5;stroke-width:0.05;stroke-dasharray:none"
       id="path53" /><path
       d="m 35.949227,33.001603 -2.500106,6.277653 5.57227,3.217892 2.500622,-6.277653 z"
       style="display:inline;opacity:1;fill:#ea34b5;fill-opacity:1;stroke:#ea34b5;stroke-width:0.05;stroke-dasharray:none"
       id="path52" /><path
       d="m 37.781673,28.401884 -1.832446,4.599719 5.572786,3.217892 1.83193,-4.59972 z"
       style="display:inline;fill:#ea34b5;fill-opacity:1;stroke:#ea34b5;stroke-width:0.05;stroke-dasharray:none"
       id="path51" /><path
       d="m 40.4828,21.619352 -2.701127,6.782532 5.57227,3.217891 2.701644,-6.783048 z"
       style="display:inline;opacity:1;fill:#ea34b5;fill-opacity:1;stroke:#ea34b5;stroke-width:0.05;stroke-dasharray:none"
       id="path50" /><path
       d="m 40.994914,20.334159 -0.512114,1.285193 5.572787,3.217375 1.831929,-4.599719 -3.363102,-1.942001 z"
       style="display:inline;fill:#ea34b5;fill-opacity:1;stroke:#ea34b5;stroke-width:0.05;stroke-dasharray:none"
       id="path49" /><path
       d="m 47.887516,20.237008 2.010213,-5.045687 -5.373315,3.103686 z"
       style="display:inline;opacity:1;fill:#ea34b5;fill-opacity:1;stroke:#ea34b5;stroke-width:0.05;stroke-dasharray:none"
       id="path48" /><path
       d="M 61.999833,55.766105 V 48.044096 L 45.809607,38.695312 43.308984,44.972965 Z"
       style="display:inline;opacity:1;fill:#ea34b5;fill-opacity:1;stroke:#ea34b5;stroke-width:0.05;stroke-dasharray:none"
       id="path47" /><path
       d="M 61.999833,34.043917 50.34318,27.313062 47.642053,34.095593 61.999833,42.38656 Z"
       style="display:inline;opacity:1;fill:#ea34b5;fill-opacity:1;stroke:#ea34b5;stroke-width:0.05;stroke-dasharray:none"
       id="path46" /><path
       d="m 54.997677,15.62747 -2.82205,7.085872 9.824206,5.673039 v -8.71523 z"
       style="display:inline;opacity:1;fill:#ea34b5;fill-opacity:1;stroke:#ea34b5;stroke-width:0.05;stroke-dasharray:none"
       id="path45" /><path
       d="M 61.999833,14.013615 V 8.2000163 l -5.032768,2.9073157 z"
       style="display:inline;opacity:1;fill:#ea34b5;fill-opacity:1;stroke:#ea34b5;stroke-width:0.05;stroke-dasharray:none"
       id="path44" /></g><g
     id="g36"
     style="display:none;stroke-width:0.1;stroke-dasharray:none"><path
       d="m 56.967065,11.107332 5.032768,2.906283 V 8.2000163 Z"
       style="display:inline;opacity:1;fill:#ea34b5;stroke:#ea34b5;stroke-width:0.1;stroke-dasharray:none"
       id="path36" /><path
       d="m 61.999833,19.671151 -7.432621,-4.291728 -2.82205,7.085356 10.254671,5.921602 z"
       style="display:inline;opacity:1;fill:#ea34b5;stroke:#ea34b5;stroke-width:0.1;stroke-dasharray:none"
       id="path35" /><path
       d="M 61.999833,34.043917 49.913232,27.064498 47.211589,33.84703 61.999833,42.38656 Z"
       style="display:inline;opacity:1;fill:#ea34b5;stroke:#ea34b5;stroke-width:0.1;stroke-dasharray:none"
       id="path34" /><path
       d="m 61.999833,48.044096 -16.620174,-9.597347 -2.500623,6.27817 19.120797,11.041186 z"
       style="display:inline;opacity:1;fill:#ea34b5;stroke:#ea34b5;stroke-width:0.1;stroke-dasharray:none"
       id="path33" /><path
       d="M 20.821468,31.987712 38.591443,42.248584 41.091549,35.970931 27.506331,28.125932 Z"
       style="display:inline;opacity:1;fill:#ea34b5;stroke:#ea34b5;stroke-width:0.1;stroke-dasharray:none"
       id="path31" /><path
       d="m 27.506331,28.125932 13.585218,7.844999 1.832446,-4.599719 -10.519771,-6.074565 z"
       style="display:inline;fill:#ea34b5;fill-opacity:1;stroke:#ea34b5;stroke-width:0.1;stroke-dasharray:none"
       id="path30" /><path
       d="m 32.404224,25.296647 10.519771,6.074565 2.701644,-6.782532 -5.999117,-3.464388 z"
       style="display:inline;opacity:1;fill:#ea34b5;stroke:#ea34b5;stroke-width:0.1;stroke-dasharray:none"
       id="path29" /><path
       d="m 39.626522,21.124292 5.999117,3.464388 1.831929,-4.599719 -2.933154,-1.693954 z"
       style="display:inline;fill:#ea34b5;fill-opacity:1;stroke:#ea34b5;stroke-width:0.1;stroke-dasharray:none"
       id="path28" /><path
       d="m 44.524414,18.295007 2.933154,1.693954 1.752865,-4.400765 z"
       style="display:inline;opacity:1;fill:#ea34b5;stroke:#ea34b5;stroke-width:0.1;stroke-dasharray:none"
       id="path27" /></g><use
     x="0"
     y="0"
     xlink:href="#g36"
     id="use36"
     transform="matrix(-1,0,0,1,123.99983,0)"
     style="display:inline" /><use
     x="0"
     y="0"
     xlink:href="#g55"
     id="use55"
     transform="matrix(-1,0,0,1,123.99983,0)" /><use
     x="0"
     y="0"
     xlink:href="#g86"
     id="use86"
     transform="matrix(-1,0,0,1,123.99984,0)" /><use
     x="0"
     y="0"
     xlink:href="#g97"
     id="use97"
     transform="matrix(-1,0,0,1,123.99984,0)" /></svg>
