<?xml version="1.0" encoding="UTF-8" standalone="no"?>
<svg width="326px" height="34px" viewBox="0 0 326 34" version="1.1" xmlns="http://www.w3.org/2000/svg" xmlns:xlink="http://www.w3.org/1999/xlink">
    <!-- Generator: Sketch 45.2 (43514) - http://www.bohemiancoding.com/sketch -->
    <title>0.Pudong</title>
    <desc>Created with Sketch.</desc>
    <defs></defs>
    <g id="Page-1" stroke="none" stroke-width="1" fill="none" fill-rule="evenodd">
        <g id="0.Pudong" fill-rule="nonzero" fill="#413A39">
            <path d="M0,2.39 L3.26,2.39 C6.44,2.39 9.1,3.74 9.1,7.39 C9.1,10.58 6.49,12.29 3.56,12.29 L0,12.29 L0,2.39 Z M2.17,10.25 L3.3,10.25 C5.3,10.25 6.84,9.48 6.84,7.25 C6.84,5.31 5.29,4.41 3.45,4.41 L2.17,4.41 L2.17,10.25 Z" id="Shape"></path>
            <path d="M20.45,8.45 C20.5249655,9.56325352 20.1081675,10.6534185 19.3096334,11.4327108 C18.5110993,12.2120031 17.4110943,12.6020916 16.3,12.5 C15.1856151,12.6083606 14.0799758,12.2210655 13.2767979,11.4410007 C12.47362,10.6609359 12.0542154,9.5670732 12.13,8.45 L12.13,2.39 L14.3,2.39 L14.3,8.39 C14.3,9.4945695 15.1954305,10.39 16.3,10.39 C17.4045695,10.39 18.3,9.4945695 18.3,8.39 L18.3,2.39 L20.47,2.39 L20.45,8.45 Z" id="Shape"></path>
            <polygon id="Shape" points="24.08 2.39 26.25 2.39 26.25 10.25 30.25 10.25 30.25 12.25 24.05 12.25"></polygon>
            <polygon id="Shape" points="31.23 2.39 33.6 2.39 35.17 8.72 35.17 8.72 37.23 2.39 39.23 2.39 41.23 8.88 41.23 8.88 43 2.39 45.2 2.39 42.32 12.25 40.4 12.25 38.22 5.42 38.22 5.42 36 12.25 34.15 12.25"></polygon>
            <polygon id="Shape" points="47.72 2.39 49.9 2.39 49.9 12.25 47.72 12.25"></polygon>
            <path d="M59.88,5 C59.4217745,4.43579211 58.7265024,4.11774208 58,4.14 C57.190826,4.15930431 56.4254045,4.51135352 55.8841508,5.11316709 C55.3428971,5.71498066 55.073696,6.51331609 55.14,7.32 C55.0710849,8.11562065 55.3299135,8.90489767 55.8565965,9.50520303 C56.3832796,10.1055084 57.1321755,10.4648207 57.93,10.5 C58.7336725,10.510286 59.4873286,10.1108482 59.93,9.44 L61.74,10.79 C60.8976057,11.9050705 59.5668554,12.5424887 58.17,12.5 C56.7659307,12.5769224 55.3943713,12.0590537 54.3915293,11.073338 C53.3886872,10.0876222 52.8472722,8.72518591 52.9,7.32 C52.8460761,5.9055884 53.3941655,4.5345934 54.4082868,3.54715944 C55.4224082,2.55972549 56.8075289,2.04838436 58.22,2.14 C59.4915769,2.09795034 60.7145447,2.63047385 61.55,3.59 L59.88,5 Z" id="Shape"></path>
            <polygon id="Shape" points="64.53 2.39 66.7 2.39 66.7 6.06 70.92 6.06 70.92 2.39 73.1 2.39 73.1 12.25 70.93 12.25 70.93 8 66.71 8 66.71 12.26 64.53 12.26"></polygon>
            <path d="M87.83,5.09 C87.3729198,4.55844296 86.7007939,4.26094464 86,4.28 C85.183813,4.28837747 84.4078439,4.63568702 83.8578449,5.23878939 C83.3078459,5.84189176 83.033326,6.64649772 83.1,7.46 C83.0310849,8.25562065 83.2899135,9.04489767 83.8165965,9.64520303 C84.3432796,10.2455084 85.0921755,10.6048207 85.89,10.64 C86.6936725,10.650286 87.4473286,10.2508482 87.89,9.58 L89.7,10.93 C88.8576057,12.0450705 87.5268554,12.6824887 86.13,12.64 C84.7175289,12.7316156 83.3324082,12.2202745 82.3182868,11.2328406 C81.3041655,10.2454066 80.7560761,8.8744116 80.81,7.46 C80.7560761,6.0455884 81.3041655,4.6745934 82.3182868,3.68715944 C83.3324082,2.69972549 84.7175289,2.18838436 86.13,2.28 C87.4134775,2.22467873 88.6528253,2.75425167 89.5,3.72 L87.83,5.09 Z" id="Shape"></path>
            <path d="M97.09,2.28 C98.5024711,2.18838436 99.8875918,2.69972549 100.901713,3.68715944 C101.915835,4.6745934 102.463924,6.0455884 102.41,7.46 C102.41,10.3981549 100.028155,12.78 97.09,12.78 C94.1518451,12.78 91.77,10.3981549 91.77,7.46 C91.7160761,6.0455884 92.2641655,4.6745934 93.2782868,3.68715944 C94.2924082,2.69972549 95.6775289,2.18838436 97.09,2.28 L97.09,2.28 Z M97.09,10.64 C97.9299265,10.6611342 98.7402243,10.32908 99.3237834,9.72461165 C99.9073425,9.12014328 100.210677,8.29866264 100.16,7.46 C100.22496,6.32320353 99.6553962,5.24382877 98.6803059,4.65584501 C97.7052156,4.06786126 96.4847844,4.06786126 95.5096941,4.65584501 C94.5346038,5.24382877 93.9650402,6.32320353 94.03,7.46 C93.9823993,8.29520585 94.2856975,9.11235295 94.8667006,9.71424173 C95.4477036,10.3161305 96.2536343,10.6480866 97.09,10.63 L97.09,10.64 Z" id="Shape"></path>
            <polygon id="Shape" points="105.36 2.53 107.53 2.53 107.53 10.39 111.53 10.39 111.53 12.39 105.33 12.39"></polygon>
            <polygon id="Shape" points="114.25 2.53 116.42 2.53 116.42 10.39 120.42 10.39 120.42 12.39 114.22 12.39"></polygon>
            <polygon id="Shape" points="122.63 2.53 129.33 2.53 129.33 4.53 124.8 4.53 124.8 6.37 129.08 6.37 129.08 8.37 124.8 8.37 124.8 10.37 129.58 10.37 129.58 12.37 122.58 12.37"></polygon>
            <path d="M141.2,11.69 C139.917581,12.3380505 138.496658,12.6641078 137.06,12.64 C135.647529,12.7316156 134.262408,12.2202745 133.248287,11.2328406 C132.234165,10.2454066 131.686076,8.8744116 131.74,7.46 C131.686076,6.0455884 132.234165,4.6745934 133.248287,3.68715944 C134.262408,2.69972549 135.647529,2.18838436 137.06,2.28 C138.486009,2.18176964 139.895603,2.63255371 141,3.54 L139.47,5.21 C138.850379,4.55512915 137.9691,4.21363369 137.07,4.28 C136.230073,4.25886578 135.419776,4.59091998 134.836217,5.19538835 C134.252658,5.79985672 133.949323,6.62133736 134,7.46 C133.949496,8.29688586 134.251501,9.11672171 134.832837,9.7208551 C135.414173,10.3249885 136.221791,10.6582907 137.06,10.64 C137.756705,10.6426712 138.443433,10.4744229 139.06,10.15 L139.06,8.54 L137.29,8.54 L137.29,6.54 L141.15,6.54 L141.2,11.69 Z" id="Shape"></path>
            <polygon id="Shape" points="144.21 2.53 150.91 2.53 150.91 4.53 146.38 4.53 146.38 6.37 150.66 6.37 150.66 8.37 146.38 8.37 146.38 10.37 151.16 10.37 151.16 12.37 144.16 12.37"></polygon>
            <path d="M171.47,4.27 C171.075629,3.66799468 170.388227,3.32429359 169.67,3.37 C168.67,3.37 167.57,3.86 167.57,5.03 C167.57,5.94 168.07,6.34 169.65,6.84 C171.23,7.34 172.65,7.84 172.65,9.77 C172.65,11.7 170.96,12.65 169.18,12.65 C168.016346,12.7102844 166.896499,12.1988875 166.18,11.28 L167.18,10.46 C167.636012,11.1724595 168.434661,11.5907994 169.28,11.56 C170.28,11.56 171.43,10.97 171.43,9.85 C171.43,8.73 170.61,8.43 168.85,7.85 C167.46,7.39 166.4,6.78 166.4,5.13 C166.4,3.24 168.03,2.29 169.76,2.29 C170.810418,2.22591599 171.830751,2.65475167 172.52,3.45 L171.47,4.27 Z" id="Shape"></path>
            <polygon id="Shape" points="175.82 2.53 177 2.53 177 6.71 182.27 6.71 182.27 2.53 183.44 2.53 183.44 12.39 182.27 12.39 182.27 7.79 177 7.79 177 12.39 175.83 12.39"></polygon>
            <path d="M190.37,2.53 L191.47,2.53 L195.66,12.39 L194.3,12.39 L193.3,9.97 L188.37,9.97 L187.37,12.39 L186,12.39 L190.37,2.53 Z M190.9,4 L190.9,4 L188.9,8.85 L192.9,8.85 L190.9,4 Z" id="Shape"></path>
            <polygon id="Shape" points="198.27 2.53 199.75 2.53 205.46 10.72 205.46 10.72 205.46 2.53 206.63 2.53 206.63 12.39 205.15 12.39 199.47 4.2 199.47 4.2 199.47 12.39 198.3 12.39"></polygon>
            <path d="M218.79,11.72 C217.657842,12.3344235 216.38809,12.6510011 215.1,12.64 C213.695931,12.7169224 212.324371,12.1990537 211.321529,11.213338 C210.318687,10.2276222 209.777272,8.86518591 209.83,7.46 C209.800874,6.05461314 210.355383,4.69998037 211.361595,3.71840182 C212.367808,2.73682327 213.735767,2.21605483 215.14,2.28 C216.428747,2.22061242 217.68583,2.69021251 218.62,3.58 L217.74,4.5 C217.035295,3.77175511 216.063364,3.36347213 215.05,3.37 C213.963694,3.34368894 212.915433,3.77062108 212.156618,4.54840736 C211.397802,5.32619364 210.996879,6.38467463 211.05,7.47 C211.001616,8.56799658 211.415222,9.63608586 212.190474,10.4151379 C212.965726,11.19419 214.03178,11.6130145 215.13,11.57 C215.97857,11.5618374 216.814972,11.3672458 217.58,11 L217.58,8 L215.31,8 L215.31,6.87 L218.75,6.87 L218.79,11.72 Z" id="Shape"></path>
            <polygon id="Shape" points="222.52 2.53 223.69 2.53 223.69 6.71 229 6.71 229 2.53 230.17 2.53 230.17 12.39 229 12.39 229 7.79 223.73 7.79 223.73 12.39 222.56 12.39"></polygon>
            <path d="M237.08,2.53 L238.18,2.53 L242.37,12.39 L241,12.39 L240,10 L235.07,10 L234.07,12.42 L232.75,12.42 L237.08,2.53 Z M237.61,4.03 L237.61,4.03 L235.61,8.88 L239.61,8.88 L237.61,4.03 Z" id="Shape"></path>
            <polygon id="Shape" points="245 2.53 246.17 2.53 246.17 12.39 245 12.39"></polygon>
            <rect id="Rectangle-path" x="158.58" y="0.28" width="1.21" height="14.11"></rect>
            <rect id="Rectangle-path" x="324.29" y="0" width="1.21" height="14.11"></rect>
            <path d="M253.84,2.54 L256.76,2.54 C257.197106,2.53980091 257.632959,2.58673892 258.06,2.68 C258.451127,2.75600564 258.824352,2.90529558 259.16,3.12 C259.483628,3.33031327 259.748569,3.61933998 259.93,3.96 C260.134941,4.3582887 260.234762,4.80232058 260.22,5.25 C260.236878,5.71621113 260.129915,6.17856922 259.91,6.59 C259.717562,6.92909683 259.446664,7.21714003 259.12,7.43 C258.796907,7.6318199 258.441845,7.777226 258.07,7.86 C257.719428,7.94513133 257.360673,7.99207131 257,8 L255,8 L255,12.42 L253.83,12.42 L253.84,2.54 Z M255,6.88 L257,6.88 C257.505876,6.90413667 258.006422,6.76762415 258.43,6.49 C258.817701,6.19984173 259.032213,5.73318339 259,5.25 C259.033084,4.75927308 258.809874,4.28637048 258.41,4 C257.989729,3.73346052 257.496994,3.60416116 257,3.63 L255,3.63 L255,6.88 Z" id="Shape"></path>
            <path d="M270.48,8.64 C270.483364,9.15673089 270.416074,9.67149634 270.28,10.17 C270.156033,10.6357881 269.93825,11.0713536 269.64,11.45 C269.330646,11.8266385 268.936583,12.1247556 268.49,12.32 C267.381389,12.7563368 266.148611,12.7563368 265.04,12.32 C264.5938,12.1241024 264.199879,11.8260923 263.89,11.45 C263.592926,11.0706086 263.375268,10.6352943 263.25,10.17 C263.113926,9.67149634 263.046636,9.15673089 263.05,8.64 L263.05,2.54 L264.22,2.54 L264.22,8.47 C264.219232,8.86034383 264.262846,9.24950953 264.35,9.63 C264.424696,9.98714549 264.567278,10.3266253 264.77,10.63 C264.968266,10.9215569 265.236434,11.1587819 265.55,11.32 C266.329451,11.6686684 267.220549,11.6686684 268,11.32 C268.313087,11.1580811 268.581097,10.9209954 268.78,10.63 C268.981432,10.3259333 269.123906,9.98670883 269.2,9.63 C269.286154,9.24934004 269.329754,8.86028755 269.33,8.47 L269.33,2.54 L270.5,2.54 L270.48,8.64 Z" id="Shape"></path>
            <path d="M273.71,2.54 L277.49,2.54 C277.826075,2.54475465 278.160928,2.58158847 278.49,2.65 C278.871932,2.7247616 279.244263,2.84216344 279.6,3 C279.956799,3.17021565 280.292421,3.38165766 280.6,3.63 C280.935199,3.89825379 281.228436,4.21508474 281.47,4.57 C281.731319,4.96155058 281.933492,5.38948364 282.07,5.84 C282.222902,6.36617907 282.297039,6.9121006 282.29,7.46 C282.297782,8.00794455 282.223629,8.55397544 282.07,9.08 C281.933629,9.53056897 281.731446,9.95852152 281.47,10.35 C281.230518,10.7065674 280.937007,11.0236951 280.6,11.29 C280.292746,11.5387969 279.957068,11.7502739 279.6,11.92 C279.253913,12.0782834 278.89184,12.1989743 278.52,12.28 C278.190956,12.3485933 277.856086,12.385429 277.52,12.39 L273.74,12.39 L273.71,2.54 Z M274.88,11.31 L277.11,11.31 C277.641899,11.3123998 278.17114,11.2348677 278.68,11.08 C279.141046,10.9416331 279.56722,10.7063852 279.93,10.39 C280.295909,10.061534 280.583032,9.65477704 280.77,9.2 C280.987081,8.64612207 281.092437,8.05476899 281.08,7.46 C281.093503,6.86514849 280.98811,6.2735872 280.77,5.72 C280.584886,5.26420664 280.297488,4.8570588 279.93,4.53 C279.568307,4.21206603 279.141778,3.9766221 278.68,3.84 C278.170624,3.6885172 277.641394,3.61435755 277.11,3.62 L274.88,3.62 L274.88,11.31 Z" id="Shape"></path>
            <path d="M289.77,12.64 C289.06102,12.6479304 288.357487,12.5153808 287.7,12.25 C287.090884,12.0007831 286.536961,11.6337664 286.07,11.17 C285.606406,10.7010685 285.242443,10.1432187 285,9.53 C284.741564,8.87429513 284.612523,8.17475663 284.62,7.47 C284.611736,6.76192914 284.740782,6.05896771 285,5.4 C285.242197,4.78665384 285.60619,4.22875722 286.07,3.76 C286.536961,3.29623363 287.090884,2.9292169 287.7,2.68 C289.027526,2.15980708 290.502474,2.15980708 291.83,2.68 C292.439116,2.9292169 292.993039,3.29623363 293.46,3.76 C293.924244,4.22840622 294.2883,4.78639739 294.53,5.4 C294.788732,6.0591066 294.91776,6.76197217 294.91,7.47 C294.916973,8.17471321 294.78795,8.87415616 294.53,9.53 C294.288998,10.1469117 293.92494,10.7083091 293.46,11.18 C292.993039,11.6437664 292.439116,12.0107831 291.83,12.26 C291.175082,12.5211723 290.474998,12.650314 289.77,12.64 L289.77,12.64 Z M289.77,11.56 C290.313521,11.5678726 290.852375,11.4587375 291.35,11.24 C291.816477,11.0394711 292.235552,10.7430526 292.58,10.37 C292.926655,9.99129099 293.198143,9.55012346 293.38,9.07 C293.570158,8.56168494 293.665074,8.02269546 293.66,7.48 C293.665533,6.93726671 293.570602,6.39819392 293.38,5.89 C293.197924,5.40998408 292.926461,4.9688558 292.58,4.59 C292.234394,4.21575198 291.81579,3.91626345 291.35,3.71 C290.34131,3.27629931 289.19869,3.27629931 288.19,3.71 C287.724906,3.91748008 287.306533,4.21680353 286.96,4.59 C286.612357,4.967963 286.340746,5.4093313 286.16,5.89 C285.777726,6.91897587 285.777726,8.05102413 286.16,9.08 C286.340746,9.5606687 286.612357,10.002037 286.96,10.38 C287.304458,10.7555474 287.723351,11.0552433 288.19,11.26 C288.689895,11.4684523 289.228662,11.5673399 289.77,11.55 L289.77,11.56 Z" id="Shape"></path>
            <polygon id="Shape" points="297.8 2.54 299.27 2.54 304.97 10.72 304.97 10.72 304.97 2.54 306.14 2.54 306.14 12.39 304.7 12.39 299 4.21 299 4.21 299 12.39 297.8 12.39"></polygon>
            <path d="M318,11.72 C317.439485,12.036905 316.836799,12.272592 316.21,12.42 C315.587513,12.5677457 314.949778,12.6415887 314.31,12.64 C313.586345,12.6511859 312.867084,12.5256544 312.19,12.27 C311.57186,12.0302221 311.007581,11.6698993 310.53,11.21 C310.056337,10.7491525 309.684957,10.1937855 309.44,9.58 C309.15482,8.90930898 309.005277,8.18878403 309,7.46 C308.988878,6.73260943 309.128475,6.0107938 309.41,5.34 C309.667239,4.72291318 310.052371,4.16736824 310.54,3.71 C311.028586,3.25694114 311.598657,2.90064664 312.22,2.66 C312.880831,2.40844949 313.582946,2.28295071 314.29,2.29 C314.924749,2.28714204 315.555931,2.38502584 316.16,2.58 C316.769028,2.77954222 317.321193,3.12250209 317.77,3.58 L316.89,4.5 C316.555107,4.1324105 316.14147,3.84525791 315.68,3.66 C315.213496,3.46874166 314.714188,3.37023866 314.21,3.37 C313.671128,3.3665225 313.137109,3.47196574 312.64,3.68 C311.679393,4.07661117 310.923794,4.85028617 310.55,5.82 C310.344461,6.34200134 310.242563,6.89903966 310.25,7.46 C310.24284,8.01769026 310.344751,8.5714034 310.55,9.09 C310.738319,9.57378288 311.02039,10.0155799 311.38,10.39 C311.746695,10.7618304 312.185736,11.0545243 312.67,11.25 C313.198315,11.4578597 313.76235,11.5597937 314.33,11.55 C314.75088,11.5455829 315.170024,11.4952857 315.58,11.4 C315.996242,11.3116326 316.399501,11.1704919 316.78,10.98 L316.78,8 L314.51,8 L314.51,6.88 L318,6.88 L318,11.72 Z" id="Shape"></path>
            <path d="M8.57,25.25 C9.04784304,25.2521655 9.52538022,25.2254502 10,25.17 L10,26.59 C9.54161267,26.5416214 9.08092991,26.5182535 8.62,26.52 L5.76,26.52 L5.76,30.91 L9.2,30.91 C9.73753327,30.9155327 10.2749753,30.8921656 10.81,30.84 L10.81,32.27 C10.2820825,32.2114884 9.7511244,32.1847736 9.22,32.19 L1.65,32.19 C1.09895564,32.1866983 0.548140256,32.2134045 -1.77635684e-15,32.27 L-1.77635684e-15,30.84 C0.548356062,30.8927712 1.09914476,30.916138 1.65,30.91 L4.37,30.91 L4.37,23.2 C4.37457996,22.742044 4.347851,22.2843104 4.29,21.83 L5.85,21.83 C5.79075308,22.2841799 5.76401841,22.7420112 5.77,23.2 L5.77,25.2 L8.57,25.25 Z" id="Shape"></path>
            <path d="M13.43,24.78 C14.1371881,25.1919298 14.7862489,25.6963812 15.36,26.28 L14.51,27.28 C13.962887,26.6508311 13.3179516,26.1139477 12.6,25.69 L13.43,24.78 Z M15.43,28.94 C15.162569,29.8760556 14.8283792,30.7917357 14.43,31.68 L13.97,32.68 L12.85,31.74 C12.9164006,31.6346346 12.9669416,31.5200752 13,31.4 C13.5803095,30.3673355 14.0272133,29.2651966 14.33,28.12 L15.43,28.94 Z M14,21.77 C14.6641404,22.2191229 15.2777141,22.7388166 15.83,23.32 L14.91,24.32 C14.3901158,23.6942651 13.7840756,23.1454621 13.11,22.69 L14,21.77 Z M17.58,23.88 C17.47,24.07 17.32,24.32 17.19,24.52 L21.68,24.52 C22.4,24.52 22.6,24.52 22.91,24.52 C22.91,24.85 22.85,25.38 22.81,27.18 C23.1183286,27.1916148 23.4269781,27.1681306 23.73,27.11 L23.73,28.39 C23.3981529,28.3501704 23.0642287,28.330135 22.73,28.33 C22.73,29.13 22.73,29.13 22.64,29.87 C22.8875237,29.8625471 23.1345089,29.8425213 23.38,29.81 L23.38,31 C23.05,31 22.87,31 22.53,30.94 C22.45,31.73 22.34,32.05 22.08,32.31 C21.82,32.57 21.56,32.62 20.9,32.62 C20.5225534,32.6194003 20.1453878,32.5993738 19.77,32.56 C19.7422557,32.1429736 19.6546931,31.7321029 19.51,31.34 C19.919856,31.4101702 20.3342943,31.4502772 20.75,31.46 C21.1,31.46 21.19,31.36 21.26,30.93 L17.18,30.93 C16.6987875,30.9260314 16.2178116,30.9527522 15.74,31.01 C16.0325172,30.1224799 16.2532278,29.2128847 16.4,28.29 L16.23,28.29 C15.9453914,28.2823896 15.6607174,28.3024842 15.38,28.35 L15.38,27.09 C15.7094524,27.1523321 16.0450765,27.1758258 16.38,27.16 L16.58,27.16 C16.66,26.52 16.74,25.76 16.76,25.16 C16.5132862,25.4739434 16.2424652,25.7681687 15.95,26.04 C15.7141729,25.6571273 15.4129295,25.3186516 15.06,25.04 C15.676294,24.5352041 16.1948595,23.9217377 16.59,23.23 C16.9095266,22.7061259 17.1361901,22.1310096 17.26,21.53 L18.63,21.77 C18.36,22.43 18.36,22.43 18.22,22.7 L21.93,22.7 C22.5042711,22.7181502 23.079103,22.6947558 23.65,22.63 L23.65,23.91 C23.1303592,23.882668 22.6096408,23.882668 22.09,23.91 L17.58,23.88 Z M19.58,29.88 L19.45,29.74 C19.1194518,29.3857444 18.7466636,29.0734082 18.34,28.81 L19.13,28.35 L17.58,28.35 C17.51,28.89 17.46,29.17 17.32,29.89 L19.58,29.88 Z M17.92,25.67 C17.84,26.45 17.84,26.46 17.74,27.2 L19.74,27.2 C19.4113807,26.7957908 19.0315198,26.4360994 18.61,26.13 L19.39,25.68 L17.92,25.67 Z M21.4,29.88 C21.5,28.88 21.5,28.88 21.52,28.34 L19.48,28.34 C19.9220956,28.63179 20.3341178,28.9667674 20.71,29.34 L19.92,29.85 L21.4,29.88 Z M19.69,25.67 C20.1000171,25.9713462 20.4846387,26.3057997 20.84,26.67 L20.08,27.16 L21.57,27.16 C21.57,26.77 21.57,26.5 21.57,25.63 L19.69,25.67 Z" id="Shape"></path>
            <path d="M26.8,29.07 C26.8,28.57 26.8,28.57 26.8,27.72 C26.5616823,28.0685327 26.2716935,28.3787533 25.94,28.64 C25.8305149,28.1883718 25.6444927,27.7588296 25.39,27.37 C26.1522582,26.8228477 26.8123176,26.1458637 27.34,25.37 C27.5943715,25.0250836 27.8153662,24.656759 28,24.27 L29,25 C28.91,25.13 28.8,25.3 28.64,25.56 C28.48,25.82 28.28,26.11 28.06,26.42 L28.06,31.29 C28.0452854,31.7641635 28.0653391,32.2387679 28.12,32.71 L26.73,32.71 C26.7851696,32.2756176 26.8085651,31.8377881 26.8,31.4 L26.8,29.07 Z M29.09,22.29 L28.96,22.43 C28.96,22.43 28.96,22.43 28.9,22.49 C29.3080904,22.5387636 29.719101,22.5588129 30.13,22.55 L32,22.55 C32,22.44 32,22.17 32.08,21.74 L33.42,21.81 C33.42,22.09 33.3,22.44 33.29,22.55 L35.29,22.55 C35.7074843,22.5546115 36.1248768,22.5345767 36.54,22.49 L36.54,23.67 C36.1585846,23.6226404 35.774273,23.6025893 35.39,23.61 L33.1,23.61 C33.1,23.7 33.1,23.7 33.1,23.9 C33.081844,24.0414878 33.0551283,24.181745 33.02,24.32 L35.22,24.32 C35.61,24.32 35.97,24.32 36.22,24.32 C36.196703,24.6329003 36.196703,24.9470997 36.22,25.26 L36.22,26.48 C36.1975275,26.7829171 36.1975275,27.0870829 36.22,27.39 C35.8869632,27.3701174 35.5530368,27.3701174 35.22,27.39 L30,27.39 C29.66,27.39 29.46,27.39 29,27.39 C29.0141516,27.1402003 29.0141516,26.8897997 29,26.64 L29,25.14 C29.0147851,24.8735383 29.0147851,24.6064617 29,24.34 C29.39,24.34 29.62,24.34 30,24.34 L31.68,24.34 C31.68,24.14 31.78,23.91 31.82,23.64 L30,23.64 C29.6169332,23.6197828 29.2330668,23.6197828 28.85,23.64 L28.85,22.53 C28.8063534,22.5890877 28.7596218,22.6458331 28.71,22.7 C28.3053557,23.217889 27.8460326,23.690623 27.34,24.11 C26.9848553,24.4208676 26.6071536,24.7049795 26.21,24.96 C26.0464356,24.5518279 25.8166873,24.1734189 25.53,23.84 C26.1424414,23.5082419 26.7019381,23.0869342 27.19,22.59 C27.5077491,22.3035151 27.7748376,21.9654284 27.98,21.59 L29.09,22.29 Z M28.18,31.57 C28.6778546,30.9439183 29.0420232,30.222388 29.25,29.45 L30.31,29.96 C30.0367137,30.8131396 29.6463214,31.6242133 29.15,32.37 L28.18,31.57 Z M32.67,29 C33.0944057,29.3171338 33.4893393,29.6719047 33.85,30.06 L33,30.8 C32.5750083,30.2490397 32.0809603,29.7549917 31.53,29.33 L32,29 L29.76,29 C29.3769635,28.9786666 28.9930365,28.9786666 28.61,29 L28.61,27.9 C29.0248713,27.9477444 29.4424631,27.9677888 29.86,27.96 L35.35,27.96 C35.7674634,27.9635226 36.1847932,27.9434907 36.6,27.9 L36.6,29.1 C36.2229882,29.0385819 35.841947,29.0051572 35.46,29 L32.67,29 Z M30.16,26.24 L31.16,26.24 L31.16,25.24 L30.16,25.24 L30.16,26.24 Z M31.69,31.1 C31.69,31.36 31.82,31.41 32.48,31.41 C32.8700812,31.4569246 33.2656919,31.4194098 33.64,31.3 C33.81,31.19 33.88,30.93 33.89,30.3 C34.2455802,30.4694811 34.6222643,30.5905582 35.01,30.66 C35.0342768,31.235716 34.8415665,31.7995722 34.47,32.24 C33.8960943,32.5416221 33.2424801,32.6569658 32.6,32.57 C32.087952,32.6019903 31.574164,32.5479074 31.08,32.41 C30.6986581,32.2916722 30.4579789,31.9158749 30.51,31.52 L30.51,30.52 C30.5175991,30.2121552 30.4975183,29.9042502 30.45,29.6 L31.75,29.6 C31.7058492,29.8811098 31.6857763,30.1654755 31.69,30.45 L31.69,31.1 Z M32.13,26.24 L33.13,26.24 L33.13,25.24 L32.13,25.24 L32.13,26.24 Z M34.13,26.24 L35.13,26.24 L35.13,25.24 L34.13,25.24 L34.13,26.24 Z M35.76,32.34 C35.5546591,31.4618227 35.1848043,30.6304977 34.67,29.89 L35.67,29.38 C36.1851734,30.0483365 36.5686429,30.8084883 36.8,31.62 L35.76,32.34 Z" id="Shape"></path>
            <path d="M46.52,24.27 C46.5442949,25.612956 46.6848197,26.951287 46.94,28.27 C47.3612155,27.2524242 47.643745,26.1828484 47.78,25.09 L49.06,25.46 C49.06,25.46 49.06,25.59 48.96,25.81 L48.73,26.61 C48.4100471,27.7119625 47.9916975,28.7829377 47.48,29.81 C47.74,30.37 48.17,30.95 48.34,30.95 C48.51,30.95 48.6,30.41 48.7,29.52 C48.9894809,29.8078392 49.3281572,30.0415259 49.7,30.21 C49.45,31.84 49.07,32.53 48.39,32.53 C47.71,32.53 47.32,32.03 46.71,30.99 C46.2480497,31.665877 45.6808724,32.2634388 45.03,32.76 C44.7635258,32.4064056 44.4507243,32.0902406 44.1,31.82 C44.8986463,31.2587604 45.578363,30.5450579 46.1,29.72 C45.5285092,27.9492785 45.2350231,26.1006534 45.23,24.24 L40.57,24.24 C40.57,29.12 40.3,30.85 39.33,32.65 C39.0589316,32.2398555 38.7208953,31.8781567 38.33,31.58 C39.09,30.29 39.33,28.76 39.33,25.23 C39.3459438,24.502603 39.3225764,23.7748757 39.26,23.05 C39.7586058,23.0962307 40.2592946,23.1162582 40.76,23.11 L45.25,23.11 C45.25,22.96 45.25,22.96 45.25,22.65 C45.2440551,22.5534247 45.2440551,22.4565753 45.25,22.36 C45.2472016,22.1454025 45.2271369,21.9313783 45.19,21.72 L46.59,21.72 C46.5645931,22.1429521 46.5645931,22.5670479 46.59,22.99 L46.59,23.12 L47.8,23.12 L47.7,23.02 C47.4471031,22.7404084 47.1617533,22.4919863 46.85,22.28 L47.68,21.66 C48.0968163,21.9373807 48.4707812,22.274286 48.79,22.66 L48.1,23.16 C48.5212708,23.1768427 48.9431873,23.1534029 49.36,23.09 L49.36,24.37 C48.8749875,24.3198813 48.3875827,24.2965126 47.9,24.3 L46.52,24.27 Z M41.44,28 C41.1938231,27.9780173 40.9461769,27.9780173 40.7,28 L40.7,26.91 C40.9461769,26.9319827 41.1938231,26.9319827 41.44,26.91 L41.88,26.91 C41.95,26.64 42.03,26.3 42.08,26.05 L41.58,26.05 C41.3338351,26.0277488 41.0861649,26.0277488 40.84,26.05 L40.84,25 C41.099326,25.0264747 41.360674,25.0264747 41.62,25 L44.32,25 C44.5827254,25.025305 44.8472746,25.025305 45.11,25 L45.11,26.17 C44.8638138,26.1482275 44.6161862,26.1482275 44.37,26.17 L43.37,26.17 C43.29,26.5 43.23,26.76 43.14,27.03 L44.3,27.03 C44.5461953,27.0515663 44.7938047,27.0515663 45.04,27.03 C45.04,27.21 45.04,27.21 44.93,27.63 C44.8257626,28.2081935 44.6854891,28.7793069 44.51,29.34 C44.3896773,29.6635031 44.2390054,29.9748917 44.06,30.27 L44.8,30.76 L44.13,31.88 C43.74,31.53 43.62,31.43 43.33,31.2 C42.645697,31.8631637 41.8175234,32.3593834 40.91,32.65 C40.7178695,32.2846834 40.475515,31.9480798 40.19,31.65 C41.0041527,31.4825707 41.763722,31.1148154 42.4,30.58 C41.8924537,30.2594181 41.3608678,29.9785803 40.81,29.74 C41.0988532,29.1814415 41.3397197,28.5993474 41.53,28 L41.44,28 Z M42.73,28 C42.5880289,28.3741614 42.4209832,28.7383212 42.23,29.09 L43.1,29.55 C43.4001537,29.0825346 43.5883713,28.5521033 43.65,28 L42.73,28 Z" id="Shape"></path>
            <path d="M56.7,23.3 C57.15,23.3 57.38,23.3 57.7,23.3 L57.57,24.06 C57.3356718,26.0913685 56.6525139,28.0451999 55.57,29.78 C54.7561168,30.9502428 53.7402428,31.9661168 52.57,32.78 C52.3125593,32.3537137 51.9725773,31.9831334 51.57,31.69 C52.0921584,31.3945614 52.572987,31.0314181 53,30.61 C53.732125,29.9952754 54.3514068,29.2575517 54.83,28.43 C54.7877061,28.3917601 54.7507121,28.3480399 54.72,28.3 C54.3123861,27.8247016 53.8603363,27.3893943 53.37,27 L54.07,26 C54.5440128,26.3610232 54.979638,26.7698407 55.37,27.22 C55.7366695,26.310813 55.9918613,25.3605592 56.13,24.39 L54.41,24.39 C53.8774422,25.7490389 53.1014029,26.9995127 52.12,28.08 C51.9370949,27.644716 51.6645044,27.2528671 51.32,26.93 C52.3231734,25.8780911 53.0693053,24.6082979 53.5,23.22 C53.6680157,22.712867 53.7852576,22.1903032 53.85,21.66 L55.23,21.9 C55.135663,22.1237279 55.0587671,22.3544155 55,22.59 C54.93,22.85 54.88,23.01 54.81,23.26 L56.7,23.3 Z M60.76,26.3 C61.359483,26.8009238 61.9303806,27.335097 62.47,27.9 L61.78,29.19 C61.0764888,28.3251511 60.2966865,27.525268 59.45,26.8 L59.45,31.19 C59.4414416,31.7211865 59.4681671,32.2523552 59.53,32.78 L58.06,32.78 C58.1213411,32.2523141 58.1480649,31.721178 58.14,31.19 L58.14,23.19 C58.1488336,22.731951 58.1220866,22.2739076 58.06,21.82 L59.53,21.82 C59.4621277,22.2733254 59.4353522,22.731856 59.45,23.19 L59.45,25.19 L60.76,26.3 Z" id="Shape"></path>
            <path d="M73.27,23.54 C73.43,23.78 73.46,23.83 73.68,24.18 L73.3,24.35 L74.36,24.35 C74.3078911,24.589622 74.287716,24.8350854 74.3,25.08 L74.3,25.18 L74.65,25.18 C74.892748,25.2038687 75.137252,25.2038687 75.38,25.18 L75.38,26.28 C75.1371128,26.2591617 74.8928872,26.2591617 74.65,26.28 L74.3,26.28 L74.3,26.99 L74.91,26.99 C75.1497542,27.0053621 75.3902458,27.0053621 75.63,26.99 L75.63,28 C75.3904576,27.97904 75.1495424,27.97904 74.91,28 L70.33,28 C70.1004861,27.9788517 69.8695139,27.9788517 69.64,28 L69.64,29 C69.3972046,28.9771175 69.1527954,28.9771175 68.91,29 L68,29 L68,29 C68.6422669,29.425204 69.2477241,29.9035486 69.81,30.43 L69.24,31.43 C68.85427,30.9774319 68.4400978,30.5498993 68,30.15 L68,31.56 C67.9848329,31.9746097 68.0082672,32.3897314 68.07,32.8 L66.79,32.8 C66.8422328,32.39556 66.8622957,31.9876135 66.85,31.58 L66.85,30.8 C66.85,30.54 66.85,30.3 66.85,30 C66.4309931,30.8020041 65.8604659,31.515163 65.17,32.1 C64.9735985,31.7422822 64.738886,31.4069786 64.47,31.1 C65.2975828,30.5434795 65.9826911,29.800137 66.47,28.93 L65.47,28.93 C65.2237916,28.9087358 64.9762084,28.9087358 64.73,28.93 L64.73,27.83 C64.9734779,27.8788246 65.2218367,27.8989618 65.47,27.89 L66.78,27.89 L66.78,27.41 L65.78,27.41 C65.5568998,27.3955694 65.3331002,27.3955694 65.11,27.41 L65.11,26.41 C65.3361809,26.4309869 65.5638191,26.4309869 65.79,26.41 L66.79,26.41 L66.79,25.91 L65.74,25.91 C65.4968381,25.8970815 65.2531619,25.8970815 65.01,25.91 L65,25 C65.2428397,25.0219204 65.4871603,25.0219204 65.73,25 L66.82,25 C66.8188198,24.7521676 66.7987618,24.5047852 66.76,24.26 L67.82,24.26 C67.68,23.96 67.52,23.68 67.38,23.44 L66.68,23.44 C66.3229725,23.9267177 65.9063979,24.3668085 65.44,24.75 C65.2090763,24.413459 64.9254424,24.1163186 64.6,23.87 C65.1033819,23.5357998 65.5379144,23.1080568 65.88,22.61 C66.1094054,22.2870466 66.2850107,21.929082 66.4,21.55 L67.67,21.76 C67.61,21.87 67.56,21.95 67.54,22.01 C67.43,22.24 67.41,22.27 67.35,22.38 L69.1,22.38 C69.4344383,22.3887789 69.7690107,22.3687045 70.1,22.32 L70.1,23.32 C70.3218461,23.0505949 70.509909,22.7550675 70.66,22.44 C70.7833849,22.1822992 70.8740874,21.9101916 70.93,21.63 L72.19,21.84 L71.94,22.44 L74.37,22.44 C74.7613619,22.4560973 75.1533492,22.4326451 75.54,22.37 L75.54,23.6 C75.1722036,23.5503091 74.8010097,23.5302446 74.43,23.54 L73.27,23.54 Z M70.7,26.18 L70.64,26.18 C70.4003686,26.1611885 70.1596314,26.1611885 69.92,26.18 L69.92,25.08 C70.1628397,25.1019204 70.4071603,25.1019204 70.65,25.08 L70.65,25.08 L70.65,24.98 C70.65,24.74 70.65,24.57 70.65,24.39 L70.36,24.68 C70.1329068,24.3550109 69.8522462,24.0709689 69.53,23.84 C69.6886162,23.7241403 69.8359369,23.5935606 69.97,23.45 C69.8,23.45 69.64,23.45 69.36,23.45 L68.57,23.45 C68.7374523,23.6751435 68.88787,23.9124691 69.02,24.16 L68.02,24.55 C68.0102635,24.699842 68.0102635,24.850158 68.02,25 L68.9,25 C69.1427724,25.0233652 69.3872276,25.0233652 69.63,25 L69.63,26.05 C69.3868752,26.0357544 69.1431248,26.0357544 68.9,26.05 L68,26.05 L68,26.55 L68.69,26.55 C68.9161325,26.5720081 69.1438675,26.5720081 69.37,26.55 L69.37,27.55 C69.1436091,27.5341884 68.9163909,27.5341884 68.69,27.55 L68,27.55 L68,28.03 L68.91,28.03 C69.1394695,28.0520925 69.3705305,28.0520925 69.6,28.03 L69.6,26.85 C69.8428851,26.8708874 70.0871149,26.8708874 70.33,26.85 L70.69,26.85 L70.7,26.18 Z M70.1,29.59 C70.1,29.05 70.1,28.72 70.1,28.33 C70.5163745,28.352066 70.9336255,28.352066 71.35,28.33 L73.8,28.33 C74.229689,28.3531292 74.660311,28.3531292 75.09,28.33 C75.030529,28.7339543 75.0004501,29.1416917 75,29.55 L75,31.55 C74.9648884,31.965927 74.9648884,32.384073 75,32.8 L73.76,32.8 L73.76,32.33 L71.29,32.33 L71.29,32.78 L70,32.78 C70.0589878,32.3795219 70.0824126,31.9746087 70.07,31.57 L70.1,29.59 Z M71.4,23.59 C71.2286362,23.8826554 71.0239377,24.1544682 70.79,24.4 L71.89,24.4 C71.837657,24.6395871 71.8174793,24.8850817 71.83,25.13 L71.83,25.23 L73.16,25.23 L73.16,25.13 C73.175898,24.9169629 73.175898,24.7030371 73.16,24.49 L72.68,24.68 C72.4834686,24.282816 72.2561055,23.9016486 72,23.54 L71.4,23.59 Z M71.29,29.91 L73.76,29.91 L73.76,29.4 L71.29,29.4 L71.29,29.91 Z M71.29,31.35 L73.76,31.35 L73.76,30.79 L71.29,30.79 L71.29,31.35 Z M73.15,26.22 L71.83,26.22 L71.83,26.93 L73.16,26.93 L73.15,26.22 Z" id="Shape"></path>
            <path d="M83.64,21.92 C83.5914352,22.2780423 83.5647191,22.6387098 83.56,23 C83.4780762,24.6857772 83.8843258,26.3593867 84.73,27.82 C85.2146005,28.6838802 85.851529,29.4529376 86.61,30.09 C87.162656,30.6052036 87.7855107,31.0395185 88.46,31.38 C88.0719249,31.7594581 87.7567134,32.2068552 87.53,32.7 C86.3701091,31.9460723 85.3541641,30.9910839 84.53,29.88 C83.7936058,28.9067263 83.2535758,27.7994949 82.94,26.62 C82.7541451,27.4800345 82.4371047,28.3063634 82,29.07 C81.5273475,29.9364265 80.9043045,30.7118441 80.16,31.36 C79.5977868,31.885951 78.9770571,32.3456265 78.31,32.73 C78.0935849,32.2569794 77.7761391,31.8371317 77.38,31.5 C78.3755073,31.0200769 79.2607807,30.3390975 79.98,29.5 C81.529606,27.6746889 82.3110485,25.3196075 82.16,22.93 C82.1802698,22.5969748 82.1802698,22.2630252 82.16,21.93 L83.64,21.92 Z" id="Shape"></path>
            <path d="M96.7,27.67 C96.7,30 96.52,30.67 95.91,31.31 C95.2881138,31.9063335 94.5064833,32.3093074 93.66,32.47 C92.8139332,32.6851605 91.9506253,32.825699 91.08,32.89 C90.9084276,32.441449 90.661549,32.0254754 90.35,31.66 C91.5158317,31.6753646 92.6767826,31.5066218 93.79,31.16 C94.3535557,31.043224 94.8325758,30.674747 95.09,30.16 C95.2790916,29.576211 95.3604153,28.9628949 95.33,28.35 C95.33,28.11 95.33,28.03 95.33,27.69 L96.7,27.67 Z M91.59,30.81 C91.59,30.39 91.59,30.03 91.59,29.56 L91.59,27.23 C91.6121844,26.8169643 91.6121844,26.4030357 91.59,25.99 C92.0297259,26.0119638 92.4702741,26.0119638 92.91,25.99 L99.07,25.99 C99.67,25.99 99.95,25.99 100.41,25.99 C100.385803,26.4029792 100.385803,26.8170208 100.41,27.23 L100.41,29.56 C100.380802,29.9761552 100.380802,30.3938448 100.41,30.81 L99,30.81 L99,27.14 L93,27.14 L93,30.81 L91.59,30.81 Z M98.71,22.1 C99.1608232,22.1091471 99.6117658,22.0891052 100.06,22.04 C100.041021,22.346373 100.041021,22.653627 100.06,22.96 L100.06,24.4 C100.06,24.78 100.06,25.06 100.06,25.4 C99.57,25.4 99.31,25.4 98.77,25.4 L93.27,25.4 C92.71,25.4 92.45,25.4 91.96,25.4 C91.96,25.01 91.96,24.68 91.96,24.4 L91.96,23 C91.9636255,22.6922484 91.9435663,22.3846739 91.9,22.08 C92.3515857,22.1290372 92.8058503,22.1490783 93.26,22.14 L98.71,22.1 Z M93.32,23.2 L93.32,24.29 L98.68,24.29 L98.68,23.2 L93.32,23.2 Z M100.9,32.9 C99.3886602,32.3101346 97.8382846,31.8256422 96.26,31.45 L97,30.39 C98.5200789,30.7379499 100.019161,31.1719826 101.49,31.69 L100.9,32.9 Z" id="Shape"></path>
            <path d="M112.44,26.47 C112.980912,26.4789555 113.521876,26.4555805 114.06,26.4 L114.06,27.84 C113.521681,27.7871402 112.980872,27.763772 112.44,27.77 L109.52,27.77 L109.52,31.25 C109.52,32.3 109.13,32.56 107.52,32.56 L106.2,32.56 C106.151505,32.0670416 106.026682,31.5846163 105.83,31.13 C106.401815,31.22433 106.980458,31.2711566 107.56,31.27 C108.05,31.27 108.13,31.27 108.13,30.96 L108.13,27.77 L104.92,27.77 C104.379148,27.7649974 103.838405,27.7883628 103.3,27.84 L103.3,26.4 C103.851574,26.4545675 104.40579,26.4779381 104.96,26.47 L108.13,26.47 L108.13,25.95 C108.13,25.57 108.13,25.32 108.13,25.04 L108.75,25.04 C109.476287,24.6130538 110.147894,24.0992741 110.75,23.51 L106,23.51 C105.519031,23.5044522 105.038163,23.5278277 104.56,23.58 L104.56,22.17 C105.034754,22.2229596 105.512343,22.2463381 105.99,22.24 L111.4,22.24 C111.734514,22.2550081 112.06968,22.2348981 112.4,22.18 L113.18,23.05 L112.06,24.11 C111.273834,24.8218521 110.419746,25.4548823 109.51,26 L109.51,26.51 L112.44,26.47 Z" id="Shape"></path>
            <path d="M125,25.51 C124.748992,26.9707488 124.137146,28.3456828 123.22,29.51 C124.439346,30.1335595 125.615337,30.8384861 126.74,31.62 L125.82,32.74 C124.717942,31.8760377 123.535912,31.1192707 122.29,30.48 C121.545774,31.1255999 120.696953,31.6396271 119.78,32 C118.835526,32.3539155 117.851717,32.5923129 116.85,32.71 C116.705996,32.2507932 116.493611,31.81591 116.22,31.42 C117.225391,31.3607779 118.216311,31.1518085 119.16,30.8 C119.802317,30.5581784 120.416022,30.2462952 120.99,29.87 C119.897052,29.342919 118.759195,28.9145492 117.59,28.59 C118.174205,27.6090916 118.692031,26.5901429 119.14,25.54 L117.65,25.54 C117.178998,25.5337916 116.708071,25.557171 116.24,25.61 L116.24,24.2 C116.708182,24.2514527 117.179024,24.2748279 117.65,24.27 L119.65,24.27 C119.993362,23.4684486 120.254694,22.6341952 120.43,21.78 L122,22 C121.88,22.36 121.88,22.36 121.75,22.73 C121.62,23.1 121.46,23.51 121.19,24.28 L125.68,24.28 C126.121198,24.2795668 126.561979,24.2528528 127,24.2 L127,25.58 C126.545176,25.5288944 126.087664,25.5055179 125.63,25.51 L125,25.51 Z M120.64,25.51 C120.308512,26.3321254 119.934678,27.1365355 119.52,27.92 C120.363353,28.2015768 121.188292,28.5355605 121.99,28.92 C122.380704,28.4861373 122.716559,28.0058647 122.99,27.49 C123.305648,26.8587944 123.527968,26.1850989 123.65,25.49 L120.64,25.51 Z" id="Shape"></path>
            <path d="M134.28,28.23 C134.292861,28.0101879 134.292861,27.7898121 134.28,27.57 L134.79,27.57 C135.303255,27.3022828 135.777621,26.9658525 136.2,26.57 L132.92,26.57 C132.43,26.57 132.11,26.57 131.73,26.57 L131.73,25.46 C132.13139,25.5087882 132.535752,25.5288392 132.94,25.52 L136.89,25.52 C137.192757,25.5464395 137.497243,25.5464395 137.8,25.52 L138.46,26.25 L138.03,26.61 C137.286668,27.2599262 136.48683,27.8422348 135.64,28.35 L138.75,28.35 C139.2413,28.3594868 139.732631,28.3327477 140.22,28.27 L140.22,29.59 C139.728673,29.5350153 139.234323,29.5116338 138.74,29.52 L135.64,29.52 L135.64,31.61 C135.673345,31.8677264 135.616838,32.12907 135.48,32.35 C135.28,32.66 134.9,32.74 133.69,32.74 L132.63,32.74 C132.56245,32.3031571 132.431045,31.8786181 132.24,31.48 C132.730858,31.5446042 133.224984,31.5813298 133.72,31.59 C134.25,31.59 134.33,31.59 134.33,31.33 L134.33,29.49 L131,29.49 C130.512337,29.4821051 130.02467,29.5054864 129.54,29.56 L129.54,28.23 C130.017544,28.2902477 130.498721,28.3169797 130.98,28.31 L134.23,28.31 L134.28,28.23 Z M134.28,23.59 C134.097328,23.0626889 133.852255,22.5591139 133.55,22.09 L134.79,21.74 C135.130239,22.3247863 135.40522,22.9451724 135.61,23.59 L136.61,23.59 C136.759155,23.406688 136.889793,23.2090572 137,23 C137.251725,22.6107743 137.459655,22.1949157 137.62,21.76 L138.91,22.12 C138.640565,22.615233 138.339961,23.0928604 138.01,23.55 L138.55,23.55 C139.03969,23.5746665 139.53031,23.5746665 140.02,23.55 C139.997513,23.8829541 139.997513,24.2170459 140.02,24.55 L140.02,25.66 C140.020615,25.9643011 140.040656,26.2682525 140.08,26.57 L138.78,26.57 L138.78,24.7 L131,24.7 L131,26.55 L129.7,26.55 C129.747096,26.2457032 129.767174,25.9378361 129.76,25.63 L129.76,24.53 C129.781417,24.1970107 129.781417,23.8629893 129.76,23.53 C130.229571,23.5583949 130.700429,23.5583949 131.17,23.53 L131.73,23.53 C131.484027,23.0485551 131.185545,22.595801 130.84,22.18 L132.05,21.82 C132.477013,22.3468144 132.842698,22.9205041 133.14,23.53 L134.28,23.59 Z" id="Shape"></path>
            <path d="M143.83,25.12 C143.523687,25.0991697 143.216313,25.0991697 142.91,25.12 L142.91,23.92 C143.216299,23.9412385 143.523701,23.9412385 143.83,23.92 L144.43,23.92 L144.43,23 C144.442149,22.5857365 144.422089,22.1711552 144.37,21.76 L145.71,21.76 C145.664842,22.1717317 145.644805,22.5858318 145.65,23 L145.65,24 L146.13,24 C146.369558,24.0206094 146.610442,24.0206094 146.85,24 L146.85,25.23 C146.620146,25.2184256 146.389854,25.2184256 146.16,25.23 L145.66,25.23 L145.66,25.42 C146.082983,25.913408 146.476978,26.4309445 146.84,26.97 C147.537784,26.3200967 148.08403,25.5246258 148.44,24.64 L149.59,25.15 C149.067149,26.3198591 148.311843,27.3711643 147.37,28.24 C147.253243,28.0270984 147.115921,27.8261397 146.96,27.64 L146.34,28.32 C146.148106,27.8565221 145.920766,27.4085281 145.66,26.98 L145.66,31.45 C145.652829,31.9409775 145.676207,32.4319256 145.73,32.92 L144.37,32.92 C144.434491,32.4327921 144.461237,31.9413292 144.45,31.45 L144.45,28.1 C144.45,28.1 144.45,27.92 144.45,27.71 C144.45,27.5 144.45,27.5 144.45,27.33 C144.182183,28.3308631 143.756869,29.2827557 143.19,30.15 C143.012844,29.6802889 142.79187,29.2282954 142.53,28.8 C143.332627,27.6941628 143.91644,26.4450752 144.25,25.12 L143.83,25.12 Z M152.18,27.4 C151.827433,28.2387681 151.384839,29.0367775 150.86,29.78 C151.719639,30.595581 152.767285,31.186385 153.91,31.5 C153.620758,31.8960623 153.394735,32.3346146 153.24,32.8 C152.038116,32.3852092 150.94698,31.7011114 150.05,30.8 C149.173661,31.7024763 148.112835,32.4051459 146.94,32.86 C146.758616,32.4353685 146.508611,32.043469 146.2,31.7 C147.364846,31.3511364 148.421475,30.7109632 149.27,29.84 C148.73698,29.1247228 148.309293,28.3367014 148,27.5 L149.09,26.95 C149.317937,27.609589 149.634143,28.235274 150.03,28.81 C150.449414,28.2268718 150.776578,27.5826633 151,26.9 L152.18,27.4 Z M149.61,23.24 C149.445805,22.8644048 149.244825,22.5059898 149.01,22.17 L150.13,21.68 C150.502472,22.1495185 150.79629,22.6763647 151,23.24 L152.34,23.24 C152.78108,23.24674 153.222106,23.2233523 153.66,23.17 L153.66,24.48 C153.27,24.48 152.86,24.42 152.34,24.42 L148.4,24.42 C147.952315,24.4155878 147.504788,24.4389661 147.06,24.49 L147.06,23.16 C147.497896,23.2133213 147.93892,23.2367089 148.38,23.23 L149.61,23.24 Z M151.54,24.6 C152.35901,25.3887246 153.102263,26.252505 153.76,27.18 L152.76,28.1 C152.466067,27.6158374 152.13153,27.1575225 151.76,26.73 C151.399654,26.2398891 151.001791,25.778502 150.57,25.35 L151.54,24.6 Z" id="Shape"></path>
            <path d="M171,29 C170.591028,30.323491 170.023579,31.5926959 169.31,32.78 L168.15,31.78 C168.971308,30.7119759 169.572889,29.4918207 169.92,28.19 L171,29 Z M169,24.8 C169.72758,25.1851402 170.400239,25.6660913 171,26.23 L170.24,27.32 C169.651764,26.7093709 168.978088,26.1872714 168.24,25.77 L169,24.8 Z M172.55,24.17 C172.115572,24.1633573 171.681203,24.1867463 171.25,24.24 L171.25,23.4 L170.59,24.31 C170.027774,23.7149484 169.380803,23.2061328 168.67,22.8 L169.48,21.86 C170.128791,22.2191547 170.724494,22.6667735 171.25,23.19 L171.25,23 C171.701939,23.0442424 172.155921,23.064271 172.61,23.06 L174.49,23.06 L174.49,22.84 C174.501487,22.5051397 174.478027,22.1699943 174.42,21.84 L175.83,21.84 C175.778048,22.1707109 175.754629,22.5052765 175.76,22.84 L175.76,23 L177.53,23 C177.214808,22.7624958 176.88031,22.5517617 176.53,22.37 L177.34,21.64 C177.846562,21.8757371 178.315066,22.1858259 178.73,22.56 L178.27,23.01 C178.87,23.01 179.05,23.01 179.27,22.95 L179.27,24.25 C178.842131,24.1969204 178.4111,24.1735312 177.98,24.18 L175.71,24.18 L175.71,25.06 L177.71,25.06 C178.089626,25.0838519 178.470374,25.0838519 178.85,25.06 C178.826271,25.5130228 178.826271,25.9669772 178.85,26.42 L178.85,31.71 C178.85,32.57 178.55,32.79 177.45,32.79 C177.17,32.79 176.94,32.79 176.45,32.79 C176.444775,32.3668875 176.345728,31.9502062 176.16,31.57 C176.490908,31.6242583 176.8249,31.6576575 177.16,31.67 C177.52,31.67 177.58,31.67 177.58,31.38 L177.58,30.38 L175.69,30.38 L175.69,31.77 C175.689317,32.1375027 175.709349,32.5047519 175.75,32.87 L174.36,32.87 C174.400387,32.4980383 174.420416,32.1241475 174.42,31.75 L174.42,30.28 L172.71,30.28 L172.71,31.51 C172.700104,31.9641591 172.720147,32.4184768 172.77,32.87 L171.4,32.87 C171.450362,32.4151159 171.473736,31.9576482 171.47,31.5 L171.47,26.13 C171.494299,25.760399 171.494299,25.389601 171.47,25.02 C171.87304,25.0417642 172.27696,25.0417642 172.68,25.02 L174.47,25.02 L174.47,24.14 L172.55,24.17 Z M174.49,26.17 L172.78,26.17 L172.78,27.11 L174.49,27.11 L174.49,26.17 Z M174.49,28.17 L172.78,28.17 L172.78,29.17 L174.49,29.17 L174.49,28.17 Z M177.65,27.1 L177.65,26.16 L175.76,26.16 L175.76,27.1 L177.65,27.1 Z M177.65,29.17 L177.65,28.17 L175.76,28.17 L175.76,29.17 L177.65,29.17 Z" id="Shape"></path>
            <path d="M184.11,29.33 C183.38737,30.6077098 182.355925,31.6838512 181.11,32.46 C180.882348,32.0561655 180.59964,31.6859528 180.27,31.36 C181.385212,30.7734677 182.300713,29.8684099 182.9,28.76 L184.11,29.33 Z M181.11,26.87 C181.446214,26.8010738 181.73099,26.5791706 181.88,26.27 C182.23,25.63 182.59,24.9 182.82,24.38 L181.82,24.38 C181.349015,24.3747101 180.878145,24.3980866 180.41,24.45 L180.41,23.06 C180.871679,23.1090674 181.335728,23.1324368 181.8,23.13 L183.27,23.13 L183.44,22.71 C183.563376,22.4379099 183.641083,22.1473525 183.67,21.85 L185.21,22.13 C185.079905,22.3041754 184.975506,22.4961359 184.9,22.7 L184.73,23.13 L189.57,23.13 C190.044275,23.1334749 190.518366,23.1101042 190.99,23.06 L190.99,24.44 C190.518269,24.3911552 190.044248,24.367788 189.57,24.37 L184.36,24.37 C184.01,25.03 183.67,25.7 183.12,26.79 L185.22,26.79 L185.22,26 C185.22,25.84 185.22,25.67 185.22,25.18 L186.69,25.18 C186.69,25.46 186.69,25.6 186.69,25.99 L186.69,26.81 L188.94,26.81 C189.384332,26.8131887 189.828458,26.7898137 190.27,26.74 L190.27,28.11 C189.828432,28.0604918 189.384325,28.0371177 188.94,28.04 L186.69,28.04 L186.69,31.7 C186.757691,32.1409178 186.525157,32.5733499 186.12,32.76 C185.747575,32.8720001 185.358029,32.9160358 184.97,32.89 L183.78,32.89 C183.750925,32.4465308 183.64959,32.0107911 183.48,31.6 C183.93053,31.6642404 184.384919,31.6976514 184.84,31.7 C185.25,31.7 185.31,31.7 185.31,31.41 L185.31,28 L182.72,28 L181.54,28.06 L181.4,28.06 L181.11,26.87 Z M190.21,32.5 C189.887868,32.0115821 189.526686,31.5500717 189.13,31.12 C188.667556,30.5462087 188.155587,30.0141626 187.6,29.53 L188.66,28.74 C189.625661,29.6022206 190.515589,30.5456782 191.32,31.56 L190.21,32.5 Z" id="Shape"></path>
            <path d="M163.62,33.21 C163.097808,32.5094383 162.670757,31.7427646 162.35,30.93 C161.879542,29.7990074 161.641484,28.5849091 161.65,27.36 C161.643043,26.3411366 161.80178,25.3279191 162.12,24.36 C162.457845,23.3361886 162.964866,22.3762289 163.62,21.52 L164.89,22.34 C164.339413,23.0591236 163.916585,23.8675701 163.64,24.73 C163.360602,25.5852716 163.222128,26.4802829 163.23,27.38 C163.22242,28.2610369 163.350589,29.1379849 163.61,29.98 C163.894733,30.8359179 164.316923,31.6397673 164.86,32.36 L163.62,33.21 Z" id="Shape"></path>
            <path d="M195.32,21.21 C195.842291,21.9104976 196.269349,22.677185 196.59,23.49 C197.060458,24.6209926 197.298516,25.8350909 197.29,27.06 C197.297135,28.0788767 197.138393,29.0921227 196.82,30.06 C196.482329,31.0838855 195.975294,32.0438732 195.32,32.9 L194,32.08 C194.550587,31.3608764 194.973415,30.5524299 195.25,29.69 C195.547304,28.8242813 195.699356,27.9153459 195.7,27 C195.70758,26.1189631 195.579411,25.2420151 195.32,24.4 C195.034277,23.5475847 194.612124,22.7471826 194.07,22.03 L195.32,21.21 Z" id="Shape"></path>
        </g>
    </g>
</svg>